<?xml version="1.0" encoding="UTF-8"?>
<svg id="Layer_1" data-name="Layer 1" xmlns="http://www.w3.org/2000/svg" viewBox="0 0 85.1 60.32">
  <defs>
    <style>
      .cls-1 {
        fill: none;
        stroke: #e41e25;
      }

      .cls-1, .cls-2 {
        stroke-miterlimit: 10;
      }

      .cls-2 {
        fill: #ee262f;
        stroke: #231f20;
      }
    </style>
  </defs>
  <path class="cls-2" d="M45.5,59.61l-21.21-21.21c-13.7-13.7,7.52-34.91,21.21-21.21,15.13-15.13,36.34,6.08,21.21,21.21l-21.21,21.21Z"/>
  <path class="cls-1" d="M65.55,11.11l5.45-4.64"/>
  <path class="cls-1" d="M62.31,8.42l4.67-4.05"/>
  <path class="cls-1" d="M57.09,7.02l2.28-5.69"/>
  <path class="cls-1" d="M50.3,6.77l2.2-5.45"/>
  <path class="cls-1" d="M46.74,7.03V.49"/>
  <path class="cls-1" d="M41.44,7.09c-1.22-2.59-3.03-4.9-5.26-6.7"/>
  <path class="cls-1" d="M34.36,8.28c-2.81-2.01-6.02-3.44-9.39-4.19"/>
  <path class="cls-1" d="M25.96,11.18c-2.71-2.53-6.12-4.3-9.74-5.07"/>
  <path class="cls-1" d="M16.45,15.79c-2.74-1.76-5.67-3.22-8.72-4.37"/>
  <path class="cls-1" d="M15.08,22.1c-3.95-1.75-8.2-2.81-12.51-3.13"/>
  <path class="cls-1" d="M14.52,30.35c-3.98-1.27-8.07-2.17-12.22-2.67"/>
  <path class="cls-1" d="M73.42,16.52c1.72-1.46,3.69-2.62,5.8-3.44"/>
  <path class="cls-1" d="M74.46,23.56c1.98-1.93,4.71-3.06,7.47-3.11"/>
  <path class="cls-1" d="M74.82,33.17l10.1-4.07"/>
  <path class="cls-1" d="M74.54,29.1c2.26-2.22,5.14-3.8,8.23-4.51"/>
  <path class="cls-1" d="M16.2,37.86c-5.41-.46-10.79-1.29-16.09-2.48"/>
</svg>