<?xml version="1.0" encoding="UTF-8"?>
<svg id="Layer_1" data-name="Layer 1" xmlns="http://www.w3.org/2000/svg" viewBox="0 0 17.87 46.96">
  <defs>
    <style>
      .cls-1 {
        stroke-width: .15px;
      }

      .cls-1, .cls-2, .cls-3, .cls-4 {
        stroke: #231f20;
        stroke-miterlimit: 10;
      }

      .cls-1, .cls-3, .cls-4 {
        fill: none;
      }

      .cls-5 {
        fill: #231f20;
      }

      .cls-2 {
        fill: #fff;
      }

      .cls-3 {
        stroke-width: .25px;
      }
    </style>
  </defs>
  <circle class="cls-2" cx="8.14" cy="6.99" r="4.85"/>
  <line class="cls-4" x1="8.14" y1="11.84" x2="8.14" y2="40.6"/>
  <line class="cls-4" x1="8.14" y1="40.6" x2="12.34" y2="46.37"/>
  <line class="cls-4" x1="8.1" y1="40.4" x2="4.79" y2="46.72"/>
  <line class="cls-4" x1="8.14" y1="20.85" x2="17.63" y2="26.22"/>
  <path class="cls-3" d="M8.19,2.23h-.26"/>
  <line class="cls-4" x1="8.06" y1="20.92" x2=".35" y2="28.62"/>
  <path class="cls-3" d="M6.08,5.93c-.14-.1-.19-.3-.13-.46.1-.24.48-.3.62-.08s-.13.55-.36.44c-.2-.1-.15-.48.08-.5s.36.35.16.46c-.11.06-.25.03-.35-.03-.22-.13-.33-.43-.22-.65s.49-.27.63-.06c.16.24-.1.58-.38.63-.23.04-.52-.13-.48-.35.03-.18.23-.26.41-.31.33-.1.62.33.54.67-.04.18-.17.35-.34.41s-.4,0-.48-.17c-.07-.13-.03-.31.08-.4s.29-.1.41-.02c.08.06.14.13.18.22-.16.1-.34.21-.52.18s-.33-.28-.2-.41.35-.19.53-.12c.1.24-.06.56-.32.59s-.49-.29-.36-.52c.09-.16.32-.21.47-.11s.21.31.13.47c0,.02-.02.04-.04.05-.09.08-.24-.02-.26-.14-.03-.16.11-.34.27-.35s.33.13.34.29"/>
  <path class="cls-3" d="M9.94,5.67c-.17.04-.35.07-.51,0s-.27-.27-.18-.41c.31-.2.79-.04.91.31.05.14-.14.24-.28.22-.21-.03-.39-.2-.44-.41s.06-.44.24-.55c.14-.08.32-.09.45,0s.2.27.13.41c-.05.1-.14.16-.24.21-.18.09-.39.16-.59.1s-.34-.3-.24-.48c.05-.09.14-.14.23-.19.26-.14.63.08.63.38,0,.05-.01.11-.03.16-.1.22-.47.22-.58,0s.1-.51.34-.49c.21.02.36.26.3.45s-.33.29-.51.19c-.23-.25.02-.74.36-.71.25.03.46.27.45.52-.15.08-.31.14-.48.11s-.32-.17-.31-.34c.09-.01.09.16,0,.17s-.14-.12-.09-.2.15-.1.24-.09c.34.04.51.53.27.77s-.73.04-.75-.29c0-.04,0-.08.01-.13.06-.26.37-.44.63-.36s.42.39.33.65c-.04.12-.23.12-.3.02s-.03-.25.07-.32c.01.15-.03.3-.12.41-.15.17-.43.21-.61.07s-.21-.44-.06-.6c.13-.14.37-.17.52-.05s.16.37.03.51-.4.09-.49-.08c-.1-.19.1-.46.32-.42"/>
  <path class="cls-3" d="M5.54,8.51c.17.36.55.57.94.65s.79.02,1.17-.04c.7-.11,1.43-.25,1.98-.69"/>
  <path class="cls-3" d="M7.78,6.14c.09.32.13.65.14.98-.15.1-.38.04-.46-.12"/>
  <path class="cls-5" d="M9.6,2.63l-.06.17-.71-.29c.04-.22-.03-.29-.2-.21.02.41.15.56.4.43l-.71-.92c-.06.13-.14.32-.32.27l.37.29.06.02-.92-.71c-.12.39-.34.62-.7.81l.92.71c.07-.42.21-.77.45-1.12.4-.58-.51-1.28-.98-.76-.43.47-.9.88-1.44,1.22l.92.71c.07-.36.16-.73.25-1.09.17-.65-.58-.98-1.04-.61s-.9.71-1.36,1.07l1.07.44c-.02-.16,0-.31.08-.46.22-.61-.62-1.02-1.04-.61-.22.22-.4.45-.57.7l1.08.63c.05-.13.13-.23.24-.3l-.98-.76c-.24.54-.45,1.1-.61,1.67l1.21.33c.09-.6.28-1.7-.7-1.65-.74.04-1.41.92-1.76,1.49-.39.64.46,1.19.98.76.35-.3.63-.63.87-1.03.35-.58-.32-1.09-.86-.86-.61.28-1.09.72-1.44,1.29s.5,1.29.98.76c.33-.36.56-.75.72-1.22.22-.64-.61-.97-1.04-.61s-.71.8-.88,1.33c-.23.7.77,1.05,1.14.48.07-.13.16-.25.27-.35l-1.07-.44c-.02.38.02.74.13,1.1.11.4.56.56.92.37.37-.2.63-.45.88-.79l-1.16-.32v.66c0,.61.86.86,1.17.32l.23-.41-1.14-.48-.11.1h.88c-.02.43.06.5.25.22.12-.11.23-.23.35-.34.22-.21.43-.43.65-.64.39-.38.87-.93,1.4-1.1l-.48-.06c.19.08.31.26.52.33.23.07.46.05.69-.03.19-.07.41-.35.57-.38.12-.02.41.15.59.15.08,0,.24,0,.31-.04.31-.15-.16-.12-.11-.18-.08.09.4.41.47.44.57.23.98-.33,1.32-.69h-.88l.07.09-.18-.44c.04.49-.04.87.41,1.21s.99.21,1.45-.04l-.94-.54c.02.24.05.49.07.73.05.48.49.76.94.54.17-.08.27-.16.4-.29l-1.07-.44c.03.55.01,1.05.61,1.25.44.15.94,0,1.23-.36l-1.04-.28c.05.18.08.36.08.54.03.42.53.85.94.54l.16-.12-.94-.54v.18c.38.11.77.21,1.16.32-.04-.48,0-1.09-.47-1.36-.19-.11-.39-.13-.6-.08-.2.04-.35.22-.53.26l.79.6c.05-.41.06-.81.04-1.22s-.54-.85-.94-.54c-.23.18-.41.34-.55.6l1.08.63c.24-.55.38-1.09.41-1.68.03-.48-.55-.76-.94-.54-.31.18-.58.39-.82.65l1.07.44v-.59c-.02-.45-.4-.66-.8-.6-.21.03-.33.08-.52.18l.94.54c-.01-.13-.03-.27-.04-.4-.04-.38-.37-.74-.79-.6-.48.15-.88.39-1.24.75l1.07.44c-.03-.12-.02-.24.03-.36.22-.49-.14-1.05-.71-.92-.36.08-.69.22-1,.41-.52.32-.31,1.17.32,1.16.43,0,.73-.19.98-.54.21-.31.01-.86-.37-.92-.74-.12-1.4-.03-2.06.33-.41.22-.4.85,0,1.08.5.29,1.06.14,1.36-.35.2-.33.02-.83-.37-.92-.44-.1-.87-.15-1.31-.14-.81.02-.8,1.2,0,1.25.32.02.63-.01.95-.09.71-.16.51-1.19-.17-1.23-.52-.03-1.01,0-1.53.08l.33,1.21c.33-.12.64-.26.95-.45.51-.32.32-1.18-.32-1.16-.56.01-1.1.09-1.65.23l.33,1.21.5-.14-.33-1.21c-.52.15-.97.42-1.34.81s-.1,1.04.44,1.07c.45.02.86-.14,1.15-.5.43-.52-.11-1.36-.76-.98s-1.2.81-1.69,1.35l.98.76c.17-.33.33-.65.5-.98.28-.54-.29-1.18-.86-.86-.68.39-1.22.92-1.63,1.58-.37.59.52,1.31.98.76.29-.35.49-.69.66-1.11.25-.63-.63-.98-1.04-.61-.49.44-.89.95-1.19,1.53l1.14.48.09-.52c.13-.78-.98-1.12-1.21-.33-.16.55-.13,1.22.46,1.5.52.24,1.09-.07,1.21-.62.13-.6-.59-1.06-1.04-.61-.36.36-.65.76-.87,1.22l1.14.48c.11-.27.24-.69.45-.9l-.61.16c.39.06.72.18,1.15-.07.23-.13.42-.31.61-.48.05-.04.61-.49.44-.53l-.37-.29c.27.37.48.69.99.7s.87-.26,1.2-.6l-.98-.13c.61.81,1.99.98,2.75.3l-1.04-.28c.47,1.28,1.6.33,2.52.37.38.02.64.35,1.1.27.42-.08.67-.38.81-.76l-1.04.28c.16.15.32.3.47.46.31.3.74.2.98-.13.13-.17.17-.28.23-.49l-1.14.15c.19.43.41.81.69,1.18s1.05.45,1.14-.15c.04-.26.06-.43-.03-.68-.22-.61-1.3-.58-1.23.17.03.29.09.52.21.79.19.41.89.4,1.08,0,.32-.67.15-1.36-.49-1.77-.49-.31-1.03.2-.92.71.04.2.13.33.26.48.38.41,1.05.08,1.07-.44.03-1.08-1.16-1.98-1.92-2.6-.61-.5-1.47.31-.88.88.24.23.49.42.79.56.59.28,1.36-.52.76-.98-.65-.5-1.34-.84-2.16-.95-.51-.07-1.01.4-.71.92.17.28.35.46.61.66l.48-1.14c-.3-.09-.61-.17-.91-.26v1.21l.37-.05c.61-.08.58-1.1,0-1.21-1.02-.19-2.02-.17-3.03.06-.67.15-.54,1.32.17,1.23.43-.06.67-.17.91-.55.26-.42-.08-.92-.54-.94l-.84-.03.17,1.23.48-.2c.64-.26.57-1.17-.17-1.23-.58-.04-.99.27-1.47.54-.52.29-1.07.48-1.65.61l.71.92.11-.2c.35-.64-.45-1.21-.98-.76s-1.02.91-1.5,1.41.17,1.42.76.98c.27-.2.48-.41.65-.71.41-.7-.66-1.32-1.08-.63-.36.59-.64,1.21-.88,1.85-.2.55.47.93.92.71.32-.16.59-.38.82-.66l-1.04-.61c-.01.16-.07.3-.18.42l1.14.48c.21-.64.53-1.26,1.03-1.73.55-.51,1.17-.59,1.88-.72s1.46-.35,2.18-.53c.57-.15,1.34.03,1.76-.47l-.76.1c.58.37,1.27.45,1.59,1.09.26.52.81.8,1.29.32.16-.16.22-.39.16-.61l-.02-.07-.92.71c.26.18.53.35.79.53l-.29-.37c.18.58.38,1.16.58,1.74.19.54,1.07.65,1.21,0l.16-.75-1.14.15c.2.35.33.69.42,1.08.14.58,1.09.61,1.21,0l.06-.29-1.14.15.26.59c.26.59,1.17.27,1.16-.32,0-.24-.03-.45-.12-.68-.26-.67-1.15-.54-1.23.17-.02.23,0,.37.03.59l.92-.71c-.2-.13-.39-.21-.61-.29-.41-.14-.77.22-.79.6-.02.25.04.41.15.63.31.63,1.38.19,1.14-.48-.1-.28-.21-.55-.36-.81-.31-.56-1.15-.28-1.16.32-.01.46.09.84.28,1.25.26.55,1.21.29,1.16-.32-.03-.37-.09-.74-.2-1.1-.17-.55-1.08-.63-1.21,0-.08.4-.02.69.27.99.43.44,1.24,0,1.04-.61-.24-.76-.7-1.36-1.38-1.79-.37-.23-1,.06-.94.54.04.38.13.7.34,1.03.31.48,1.23.34,1.16-.32-.04-.42-.1-.83-.2-1.24l-1.04.61c.18.23.37.43.58.63.49.44,1.14,0,1.04-.61-.07-.46-.24-.87-.5-1.25-.4-.59-1.28-.22-1.14.48.05.27.14.49.28.73.26.46,1.01.37,1.14-.15l.11-.42-.77.44.34.09c.58.15.91-.44.71-.92s-.51-.79-.92-1.07-.92.1-.94.54c-.02.41.16.68.49.9.64.41,1.18-.47.76-.98-.46-.57-1.01-1.03-1.64-1.4l-.32,1.16h.05c-.21-.2-.42-.41-.62-.62v.06c.16-.2.31-.4.46-.6h.2c-.1-.02-.21-.04-.31-.05-.16-.03-.32-.05-.48-.06-.34-.02-.67.02-1.01.08l.71.92c.04-.1.08-.18.15-.26.28-.42-.1-.92-.54-.94-.65-.04-1.28.03-1.91.18l.48,1.14.69-.32c.67-.31.18-1.29-.48-1.14-.78.17-1.51.42-2.24.74l.63,1.08.57-.37c.62-.4.2-1.25-.48-1.14-.46.07-.91.16-1.37.26l.48,1.14.59-.38c.47-.3.35-1.25-.32-1.16-.39.05-.71.14-1.06.33l.63,1.08.32-.2c.61-.38.21-1.31-.48-1.14-.57.14-1.13.31-1.68.52-.26.1-.45.31-.46.6-.01.67-.57,1.22-.91,1.77-.36.6-.65,1.23-.89,1.89h1.21c-.14-.4-.52-.68-.96-.5s-.67.77-.85,1.18l1.14.48c.07-.18.16-.36.26-.53h-1.08l.08.15c.15.48.68.57,1.04.28.34-.28.61-.6.84-.97l-1.08-.63c-.12.22-.3.21-.48.36-.14.11-.23.26-.36.39l.98.13c-.14-.31-.27-.63-.41-.94-.22-.51-1.02-.34-1.14.15-.04.18-.06.31-.05.5.05.73.96.81,1.23.17l.16-.38h-1.21c.15.36.35.64.73.78.15.05.31.07.47.05.11,0,.21-.03.3-.07.23-.06.2-.11-.1-.14l-.18-.44v.12c.07-.15.13-.29.19-.44-.13.14-.26.27-.39.41l1.04.61c.02-.12.04-.23.06-.35.14-.79-1.07-1.12-1.21-.33-.02.12-.04.23-.06.35-.1.58.58,1.09,1.04.61.36-.38.82-.81.43-1.35-.2-.28-1.29-.53-1.12-.12-.24-.59-.96-.59-1.21,0l-.16.38,1.23.17v-.16c-.37.05-.75.1-1.14.15.14.31.27.63.41.94.16.38.72.38.98.13.15-.14.27-.3.39-.46l-.37.29c.45-.15.78-.4,1.02-.82.39-.7-.66-1.31-1.08-.63-.18.29-.39.51-.64.72l1.04.28c-.05-.17-.1-.3-.2-.45-.25-.38-.85-.43-1.08,0-.15.27-.27.54-.38.83-.26.65.86,1.13,1.14.48.08-.17.16-.34.25-.51.07-.13.31-.33.08-.19l-.48.06.09.02-.44-.44.03.08c.21.6.99.59,1.21,0,.28-.76.66-1.45,1.11-2.11.4-.59.72-1.15.74-1.88l-.46.6c.55-.21,1.1-.39,1.68-.52l-.48-1.14-.32.2c-.68.42-.08,1.47.63,1.08.13-.09.27-.14.43-.16l-.32-1.16-.59.38c-.6.39-.22,1.3.48,1.14.45-.1.91-.19,1.37-.26l-.48-1.14-.57.37c-.69.45-.09,1.4.63,1.08.62-.27,1.27-.47,1.94-.61l-.48-1.14-.69.32c-.66.31-.18,1.3.48,1.14.53-.12,1.04-.16,1.58-.13l-.54-.94c-.06.08-.11.17-.15.26-.24.52.15,1.01.71.92.35-.06.68-.04,1.03.02.2.03.37.09.57.01.24-.09.49-.31.46-.6v-.06c-.04-.36-.27-.59-.63-.62h-.05c-.64-.06-.82.86-.32,1.16.54.32.99.72,1.39,1.21l.76-.98.13.18-.94.54c.24.16.36.36.47.62l.71-.92-.34-.09c-.32-.09-.68.11-.77.44l-.11.42,1.14-.15c-.09-.13-.14-.28-.15-.43l-1.14.48c.21.3.32.59.38.95l1.04-.61c-.21-.2-.4-.4-.58-.63-.41-.52-1.18.05-1.04.61.07.3.13.6.16.9l1.16-.32c-.1-.11-.15-.25-.17-.4l-.94.54c.4.25.66.59.81,1.04l1.04-.61.05.23h-1.21c.08.25.13.5.15.76l1.16-.32c-.1-.21-.12-.39-.11-.62l-1.16.32c.09.17.17.33.23.51l1.14-.48h.02c-.26.2-.53.4-.79.6.12.03.22.09.32.16.51.33.99-.21.92-.71v-.26c-.4.06-.81.11-1.21.17.06.11.09.22.08.35l1.16-.32-.26-.59c-.22-.48-1.04-.36-1.14.15l-.06.29h1.21c-.12-.49-.3-.94-.55-1.38s-1.03-.38-1.14.15l-.16.75h1.21c-.19-.54-.36-1.09-.55-1.63-.18-.51-.68-.72-1.11-1.01-.46-.31-1.06.2-.92.71l.02.07.16-.61-.06.06.44-.18h-.09c.15.06.29.12.44.19.02.02-.12-.33-.17-.42-.13-.21-.32-.37-.52-.52-.43-.31-.95-.45-1.4-.73-.22-.14-.58-.11-.76.1.14,0,.11-.01-.07,0h-.15c-.19,0-.39.02-.57.05-.4.08-.82.16-1.21.25s-.77.27-1.17.35-.83.11-1.23.24c-1.42.46-2.3,1.76-2.75,3.12-.23.71.76,1.04,1.14.48.15-.23.25-.45.3-.72.12-.55-.62-1.13-1.04-.61-.17.2-.33.34-.57.46l.92.71c.2-.55.46-1.06.76-1.55l-1.08-.63c-.04.1-.11.19-.2.26l.76.98c.48-.49.98-.96,1.5-1.41l-.98-.76-.11.2c-.27.49.17,1.03.71.92.49-.11.95-.26,1.41-.46.4-.18.95-.68,1.39-.64l-.17-1.23-.48.2c-.63.26-.58,1.2.17,1.23l.84.03-.54-.94.17-.07.17,1.23c.79-.18,1.57-.21,2.37-.06V.59l-.37.05c-.64.09-.55,1.05,0,1.21.3.09.61.17.91.26.73.21,1.01-.74.48-1.14l-.16-.21-.71.92c.59.08,1.13.27,1.61.63l.76-.98c-.21-.1-.37-.2-.54-.36l-.88.88c.29.24.57.48.83.75.23.23.73.62.72.97l1.07-.44.06.07-.92.71.04.06h1.08l-.04-.16-1.23.17.03.02,1.14-.15c-.28-.37-.5-.75-.69-1.18-.22-.52-1.01-.32-1.14.15l-.11.19.98-.13c-.16-.15-.32-.3-.47-.46-.35-.34-.89-.16-1.04.28.33-.04.39-.11.17-.22-.08-.08-.17-.13-.28-.16-.19-.07-.4-.05-.6-.03-.26.02-.53.06-.78.11-.32.07-.68.03-.53.44-.17-.45-.68-.61-1.04-.28-.11.1-.71.07-.79-.04-.23-.31-.67-.44-.98-.13-.05.05-.17.22-.24.23.12-.01.05-.03-.04-.14-.14-.18-.39-.29-.62-.28-.55.01-.98.58-1.35.91-.09.08-.24.26-.35.29.08-.02-.1-.05-.12-.05-.25,0-.4-.05-.62.1-.44.3-.65,1.02-.84,1.5-.26.65.84,1.12,1.14.48.18-.37.39-.68.68-.97l-1.04-.61v-.05c.16-.06.31-.12.46-.18h.28c-.4-.1-.8-.21-1.21-.32l-.09.52c-.11.65.79,1.16,1.14.48.26-.5.57-.91.99-1.28l-1.04-.61c-.08.21-.2.39-.34.56l.98.76c.31-.49.69-.85,1.19-1.14l-.86-.86c-.17.33-.33.65-.5.98-.31.6.48,1.31.98.76.43-.46.89-.84,1.44-1.16l-.76-.98c-.05.12-.14.17-.27.13l.44,1.07c.23-.25.46-.4.79-.49.77-.22.44-1.42-.33-1.21l-.5.14c-.77.22-.45,1.41.33,1.21.44-.11.86-.17,1.31-.18l-.32-1.16c-.21.13-.41.24-.65.32-.77.28-.45,1.31.33,1.21.4-.05.8-.06,1.2-.03l-.17-1.23c-.22.05-.39.06-.62.04v1.25c.34,0,.65.02.98.09l-.37-.92.35-.09v1.08c.35-.19.71-.27,1.1-.21l-.37-.92.1-.08.32,1.16c.23-.14.44-.22.7-.28l-.71-.92c-.15.33-.23.62-.2.99.04.52.66.85,1.07.44.21-.21.41-.34.69-.43l-.79-.6c.01.13.03.27.04.4.05.48.49.76.94.54l.22-.05-.79-.6v.59c.03.52.7.85,1.08.44.17-.19.35-.33.57-.45l-.94-.54c-.02.36-.09.72-.24,1.05-.31.72.67,1.35,1.08.63l.11-.15-.94-.54c.02.41,0,.81-.04,1.22-.05.44.44.67.79.6.23-.04.39-.23.6-.27l-.48-.06.11.06-.29-.37c.06.2.06.42.08.62.05.54.89.95,1.16.32.12-.27.19-.51.18-.81-.01-.43-.54-.84-.94-.54l-.16.12.94.54c-.02-.3-.06-.58-.13-.88-.1-.43-.75-.64-1.04-.28l.02.03.31.54-.04-.57c-.03-.53-.66-.83-1.07-.44l-.15.1.94.54c-.02-.24-.05-.49-.07-.73-.05-.47-.5-.78-.94-.54,0,.23.01.24.03.04,0-.07,0-.14-.02-.21-.04-.19-.13-.3-.25-.45-.21-.26-.67-.23-.88,0-.09.1-.19.2-.28.29-.16.16-.19.19-.08.1l.48.06c.15.1-.19-.26-.25-.3-.15-.1-.31-.14-.49-.15-.13,0-.31.09-.42.07-.2-.03-.36-.21-.61-.2-.17,0-.35.06-.5.13-.04.02-.67.41-.37.42-.06,0-.24-.2-.33-.24-.24-.11-.42-.09-.66,0-.87.32-1.6,1.2-2.25,1.83-.48.47-1.58,1.35-.77,2.06.27.24.61.23.88,0,.22-.19.33-.39.43-.65.27-.66-.8-1.09-1.14-.48l-.23.41,1.16.32v-.66c0-.67-.82-.79-1.17-.32-.12.16-.26.25-.43.34l.92.37c-.08-.26-.1-.5-.08-.77.03-.53-.71-.84-1.07-.44-.17.19-.32.39-.47.6l1.14.48c.11-.33.29-.56.55-.78l-1.04-.61c-.09.26-.22.47-.4.67l.98.76c.25-.4.56-.65.99-.84l-.86-.86c-.19.31-.4.54-.68.77l.98.76c.24-.4.56-.76.99-.95l-.48.06.13.02-.37-.29c-.07-.13-.1.35-.1.36-.11.77.98,1.13,1.21.33.13-.47.28-.93.48-1.37.28-.63-.43-1.26-.98-.76-.18.16-.32.34-.44.56-.39.71.64,1.3,1.08.63.11-.17.23-.31.38-.45l-1.04-.61c-.1.26-.13.51-.13.79,0,.59.66.77,1.07.44.45-.36.9-.71,1.36-1.07l-1.04-.61c-.09.36-.18.72-.25,1.09-.1.5.43,1.02.92.71.62-.4,1.19-.87,1.69-1.42l-.98-.76c-.3.43-.49.9-.58,1.42s.41.97.92.71c.64-.33,1.07-.87,1.27-1.55.15-.5-.47-1.02-.92-.71-.55.39-1.04,1.34-.35,1.87s1.66-.08,1.94-.73c.2-.47-.14-1.09-.71-.92-.44.13-.87.35-1.02.82-.13.44.07.96.5,1.14,1.04.42,2.2-.55,1.73-1.61-.12-.26-.46-.34-.71-.29-.75.15-1.1,1.04-.69,1.67.44.67,1.52.04,1.08-.63h0Z"/>
  <rect class="cls-1" x="4.89" y="4.64" width="2.45" height="1.6"/>
  <rect class="cls-1" x="8.57" y="4.57" width="2.45" height="1.6"/>
  <path class="cls-5" d="M7.31,5.56c.36.01.73.04,1.09.09.06,0,.14-.03.18-.07.04-.04.08-.11.07-.18s-.02-.13-.07-.18l-.05-.04s-.08-.03-.13-.03c-.36-.05-.73-.07-1.09-.09-.06,0-.13.03-.18.07s-.08.11-.07.18c0,.14.11.25.25.25h0Z"/>
  <path class="cls-5" d="M11.03,5.66c.05.01.11.02.16.01.04,0,.07,0,.11-.02s.07-.03.11-.04c.09-.04.16-.1.24-.16.14-.11.27-.23.41-.34.08-.06.15-.13.23-.19.05-.04.07-.12.07-.18,0-.06-.03-.13-.07-.18s-.11-.08-.18-.07h-.07s-.08.04-.11.07c-.12.1-.23.19-.35.29s-.23.19-.34.28l.05-.04s-.1.07-.15.09l.06-.03s-.05.02-.08.02h.07s-.04,0-.07,0h.07s-.02,0-.03,0c-.06-.02-.14,0-.19.03-.05.03-.1.09-.11.15-.01.06-.01.14.03.19s.09.1.15.11h0Z"/>
  <path class="cls-5" d="M5.01,5.38c-.08-.05-.15-.1-.23-.16l.05.04c-.23-.18-.43-.38-.61-.6-.02-.02-.05-.04-.08-.05-.03-.02-.06-.02-.1-.02-.06,0-.13.03-.18.07s-.08.11-.07.18v.07s.04.08.07.11c.2.25.43.46.68.66.07.05.14.1.21.15.05.03.13.04.19.03s.12-.06.15-.11c.03-.06.05-.13.03-.19s-.06-.11-.11-.15h0Z"/>
</svg>