<?xml version="1.0" encoding="UTF-8"?>
<svg id="Layer_1" data-name="Layer 1" xmlns="http://www.w3.org/2000/svg" viewBox="0 0 23.87 60.33">
  <defs>
    <style>
      .cls-1 {
        fill: #fff;
      }

      .cls-1, .cls-2, .cls-3, .cls-4 {
        stroke-miterlimit: 10;
      }

      .cls-1, .cls-3, .cls-4 {
        stroke: #231f20;
      }

      .cls-2 {
        stroke: #ed2991;
      }

      .cls-2, .cls-3 {
        stroke-width: .5px;
      }

      .cls-2, .cls-3, .cls-4 {
        fill: none;
      }
    </style>
  </defs>
  <circle class="cls-1" cx="10.26" cy="12.73" r="6.03"/>
  <line class="cls-4" x1="10.26" y1="18.76" x2="10.26" y2="53.72"/>
  <line class="cls-4" x1="10.26" y1="53.72" x2="4.01" y2="59.97"/>
  <line class="cls-4" x1="16.88" y1="59.78" x2="10.26" y2="53.91"/>
  <line class="cls-4" x1="10.06" y1="31.87" x2="4.21" y2="37.73"/>
  <line class="cls-4" x1="10.26" y1="34.8" x2="6.33" y2="37.82"/>
  <path class="cls-4" d="M7.48,10.48c-.06-.32.32-.63.62-.5.07.12.07.27,0,.39-.24.08-.53-.06-.62-.29"/>
  <path class="cls-3" d="M6.05,15.31c1.25.04,2.52-.35,3.53-1.09"/>
  <polygon class="cls-2" points="8.59 8.87 9.37 10.21 8.59 11.56 7.04 11.56 6.26 10.21 7.04 8.87 8.59 8.87"/>
  <path class="cls-2" d="M9.33,10.23c1.71-.17,3.4-.63,4.95-1.33"/>
  <path class="cls-3" d="M12.29,8.19l-.24-.06c-.09-.38.08-.78.34-1.06s.62-.47.96-.65c.25-.13.58-.24.77-.03.12.14.09.36-.01.51s-.28.24-.45.32c-.52.24-1.07.4-1.63.49-.33.05-.58-.38-.47-.7s.44-.51.77-.6c.25-.07.53-.1.77.02s.4.4.31.64c-.22.57-1.09.63-1.54.22s-.55-1.09-.47-1.7c.05-.45.22-.94.63-1.15.58-.3,1.29.14,1.65.69.25.38.08.93-.27,1.23s-.82.41-1.27.49c-.5.09-1.01.15-1.51.06s-.99-.34-1.26-.77c-.15-.25-.02-.59.21-.77s.53-.23.82-.27c.31-.04.64-.08.94,0s.58.34.61.65c.04.56-.63.85-1.18.98-.61.14-1.25.28-1.84.07s-1.02-.94-.71-1.48c.16-.27.45-.42.73-.55.36-.16.74-.3,1.13-.29s.8.21.96.57c.21.48-.08,1.04-.44,1.42-.75.8-1.83,1.29-2.93,1.29-.52,0-1.07-.12-1.45-.47s-.52-.99-.21-1.41c.12-.16.3-.28.49-.37.48-.25,1.03-.4,1.56-.33s1.06.38,1.3.86c.19.38.1.99-.33,1.06-.15.02-.3.05-.44.07-.61.1-1.37.14-1.73-.37-.24-.34-.17-.84.09-1.16s.69-.49,1.1-.51c.53-.03.82.68.67,1.19-.21.74-1.03,1.25-1.79,1.11s-1.34-.9-1.28-1.67c.02-.24.23-.43.46-.5s.48-.03.72.04c.08.02.17.05.24.08.59.28.62,1.18.21,1.69s-1.09.7-1.74.81c-.44.08-.92.13-1.31-.07s-.62-.78-.33-1.12c.34-.4,1.04-.13,1.33.32.3.46.34,1.1.07,1.57s-.9.75-1.42.57-.86-.81-.65-1.33.95-.73,1.37-.38c.51.43.69,1.21.4,1.8s-1.05.92-1.67.7-.99-1-.75-1.62c.54.15.98.66,1.01,1.22s-.36,1.14-.9,1.27c.5.09.92.5,1.02,1s-.15,1.04-.58,1.3c-.16.1-.36.16-.54.12-.11-.02-.22-.08-.32-.15-.63-.4-1.22-1.08-1.04-1.8.19-.76,1.24-1.07,1.92-.66s.94,1.29.79,2.07c-.53-.06-1.06-.21-1.47-.54s-.68-.87-.59-1.39c.1-.59.59-1.01,1.05-1.39.31-.26.65-.52,1.05-.59s.88.16.94.56c.05.32-.18.64-.47.77s-.63.14-.96.11c-.44-.04-.91-.13-1.23-.43-.49-.46-.46-1.29-.12-1.87s.91-.98,1.47-1.36c.22-.15.46-.31.73-.33s.57.16.59.43c0,.07-.02.15-.04.22-.18.44-.79.62-1.2.37s-.53-.85-.28-1.25c.21-.33.59-.51.97-.63.58-.19,1.18-.31,1.8-.36.9-.07,1.97.13,2.35.95.12.26-.01.59-.24.77s-.52.26-.8.32c-.54.12-1.09.2-1.64.25-.18.02-.36.03-.53-.02-.54-.17-.69-.94-.4-1.43s.84-.75,1.37-.95c.34-.13.71-.25,1.07-.19s.71.35.71.72c0,.43-.44.71-.85.86-.59.21-1.41.23-1.69-.33-.15-.29-.08-.66.09-.93s.43-.49.7-.67c.81-.55,1.72-.96,2.67-1.18.62-.15,1.38-.17,1.78.32.27.34.27.86,0,1.19s-.78.44-1.16.25c-.21-.11-.29-.4-.22-.63s.25-.41.44-.56c.8-.63,1.91-.84,2.88-.55.83.25,1.61.99,1.54,1.85-.77.03-1.54-.32-2.01-.92-.07-.09-.14-.21-.11-.33.03-.09.12-.15.21-.19,1.09-.56,2.52-.36,3.41.48.38.35.66.97.32,1.36-.17.2-.45.27-.72.3-.75.09-1.53-.04-2.22-.36-.15-.07-.3-.15-.38-.3s-.06-.35.08-.43c.04-.02.08-.03.13-.04,1.11-.22,2.31.07,3.2.77.19.15.38.34.42.58.07.46-.41.79-.84.96-.68.27-1.41.43-2.14.47-.28.02-.59,0-.79-.19-.22-.22-.2-.61,0-.86s.49-.38.8-.45c.58-.13,1.22-.04,1.73.27s.87.86.92,1.46c.03.32-.42.43-.74.37-.45-.09-.88-.32-1.21-.64-.13-.13-.26-.28-.29-.46-.07-.39.31-.72.69-.85.73-.24,1.56-.05,2.17.42s1.01,1.17,1.21,1.91c.04.16.04.39-.12.43-.75.23-1.51-.31-2.06-.88-.12-.12-.24-.28-.17-.44.06-.14.25-.18.41-.19.39-.02.79-.02,1.15.14s.65.52.61.91c-.06.58-.82.87-1.36.66s-.9-.72-1.2-1.22c-.07-.11-.09-.24-.08-.36.85-.18,1.68.5,2.07,1.28.15.3.27.63.24.96s-.22.67-.53.79-.73-.05-.81-.37.3-.69.6-.54c.7.34,1.19,1.1,1.21,1.88-.44-.26-.75-.73-.81-1.23.47.15.84.58.92,1.07.02.1,0,.21-.03.31-.4.07-.83-.19-.96-.57-.03-.07-.04-.16,0-.23.09-.15.33-.05.46.08.26.26.48.62.36.97-.13.39-.62.53-1.03.5s-.8-.16-1.06-.46-.32-.79-.06-1.08c.29-.34.85-.3,1.22-.06.44.29.69.82.71,1.34-.8-.15-1.56-.57-2.11-1.17-.14-.15-.03-.41.15-.48s.39-.03.58.05c.59.23,1.09.67,1.4,1.22.05.08.09.18.05.27-.06.16-.29.13-.45.06-.67-.27-1.29-.66-1.82-1.15-.24-.22-.48-.52-.43-.85.05-.3.34-.51.63-.61.72-.26,1.58-.1,2.16.41.18.16.34.36.38.59s-.03.51-.24.63c-.06.03-.13.05-.19.07-.48.1-1.01-.15-1.25-.58s-.14-1.02.21-1.36c.07-.07.16-.13.25-.17.38-.15.84.19.87.59s-.3.78-.7.88-.82-.06-1.13-.33c-.44-.39-.66-1.06-.44-1.61s.88-.91,1.44-.72c.36.12.62.43.85.74.2.28.38.71.11.92-.18.14-.45.07-.67-.01-.43-.16-.88-.33-1.2-.66s-.47-.88-.21-1.26c.37-.54.89-.98,1.49-1.25.14-.06.31-.12.45-.05.15.07.21.26.23.43.06.37.08.76.04,1.13-.03.28-.43.33-.7.25-.34-.1-.66-.3-.85-.6s-.22-.71-.02-1c.05-.07.11-.13.17-.18.28-.22.7-.26.99-.05s.34.69.08.93c-.19.17-.46.19-.71.16-.48-.06-.93-.26-1.3-.57-.29-.25-.24-.71-.08-1.06.24-.53.68-.97,1.21-1.22.15-.07.37-.1.45.04.3.57.01,1.32-.53,1.67s-1.25.34-1.85.13c-.35-.12-.72-.41-.65-.77.05-.22.25-.37.45-.48.64-.37,1.37-.58,2.11-.61.41-.02.72.44.64.84s-.46.69-.86.76-.81-.04-1.18-.2c-.33-.14-.67-.37-.76-.72-.13-.54.4-1,.9-1.24.65-.31,1.4-.5,2.09-.31s1.28.88,1.17,1.6c-.05.3-.39.43-.69.49-1.18.25-2.4.28-3.6.11-.27-.04-.55-.1-.78-.25s-.39-.44-.33-.71c.12-.5.85-.54,1.31-.31.28.14.55.41.49.71-.06.26-.34.41-.59.5-1.34.48-2.83.54-4.2.16-.2-.05-.4-.12-.55-.27-.1-.1-.16-.23-.21-.37-.26-.75-.07-1.64.49-2.2.1-.1.22-.2.36-.21.25-.02.46.23.48.49.03.37-.23.73-.56.9s-.73.18-1.1.15c-.49-.04-.97-.17-1.42-.37-.28-.12-.58-.32-.62-.62-.06-.43.44-.73.87-.8.82-.13,1.7.11,2.33.65.26.22.21.66,0,.92s-.57.37-.9.46c-1.19.32-2.44.42-3.67.31-.62-.06-.92-.95-.54-1.45s1.17-.54,1.7-.21c.57.36.87,1.11.7,1.77-.08.31-.37.52-.68.61-.77.22-1.67-.31-1.86-1.09-.05-.23-.01-.54.21-.62.65-.23,1.41-.1,1.95.32.28.22.51.55.45.9-.1.57-.86.71-1.43.63-.46-.07-.95-.23-1.19-.63-.26-.45-.07-1.09.38-1.36s1.05-.2,1.46.13.61.87.59,1.39c-.02.57-.7.85-1.26.96-.5.1-1.01.19-1.52.11s-1-.35-1.24-.8c-.1-.2-.15-.45-.07-.66s.34-.36.55-.28c.07.02.13.07.18.12.49.46.35,1.34-.17,1.77s-1.27.47-1.91.29c-.44-.12-.89-.36-1.11-.76s-.14-.99.26-1.22c.26-.15.6-.11.87.02.67.33.95,1.26.59,1.9-.17.3-.51.54-.83.43-.11-.29-.21-.6-.19-.91s.23-.63.54-.69c.17-.03.34.02.5.08.97.37,1.76,1.21,2.07,2.2.09.3-.28.53-.59.55-.33.02-.68-.07-.91-.3s-.34-.6-.2-.9c.23-.49.97-.53,1.41-.21s.64.86.83,1.37c.16.45-.31.94-.79.93s-.89-.36-1.15-.76c-.13-.2-.23-.42-.23-.66s.14-.48.37-.55c.24-.08.51.07.65.27s.2.46.25.71c.05.26-.28.42-.54.47-.41.07-.86.1-1.23-.1s-.61-.68-.42-1.05c.07-.12.26-.21.32-.09.26.44.47.91.62,1.4.03.09.06.18.03.27-.03.11-.14.17-.25.22-.44.17-1,0-1.27-.38-.08-.11-.14-.27-.06-.39.13-.2.44-.05.59.14.36.45.5,1.06.38,1.63v.2c-.93-.05-1.83-.44-2.51-1.08-.03-.03-.07-.07-.09-.11-.06-.13.04-.3.18-.35s.29-.02.43.01c1.13.26,2.23.68,3.25,1.23.14.07.3.23.21.36-.03.05-.08.07-.13.09-.55.23-1.16.35-1.76.35-.41,0-.94-.2-.91-.61.03-.4.57-.53.96-.44.67.15,1.26.63,1.55,1.25-.44.25-.89.51-1.33.76"/>
  <path class="cls-3" d="M17.78,20.68c1.15-.08,2.6.08,3.59.74.51.35.97,1,.17,1.23-.64.18-1.56-.12-2.1-.44-.28-.16-2.44-2.18-2.24-2.36.44-.39,1-.7,1.58-.67s1.17.51,1.16,1.09c0,.39-.26.72-.54.99-.87.83-2.15,1.21-3.33,1-.38-.07-.81-.27-.85-.65-.02-.2.07-.39.17-.56.46-.76,1.21-1.34,2.06-1.6.55-.17,1.18-.19,1.66.11s.73,1.01.4,1.48c-.39.55-1.22.46-1.88.31-.57-.13-1.14-.26-1.71-.4-.07-.02-.16-.04-.19-.11-.04-.08,0-.17.05-.25.27-.42.67-.74,1.14-.91.2-.07.42.06.53.25s.11.4.12.61,0,.46-.19.57c-.55.33-1.31.1-1.75-.37s-.64-1.12-.79-1.75c-.02-.08-.04-.17-.03-.25.03-.44.68-.59,1.03-.32s.47.73.56,1.16c-.39.01-.77-.25-.9-.61s0-.81.3-1.05c.21.31.28.71.18,1.07-.46-.21-.79-.68-.84-1.18,0-.07,0-.14.02-.21.09-.23.42-.22.64-.12.45.19.81.55,1.01.99-.43.12-.88.16-1.32.13-.22-.01-.45-.05-.6-.2-.27-.26-.19-.72,0-1.04.3-.52.82-.87,1.32-1.2.47-.32,1.09.08,1.49.48.37.36.75.84.64,1.34-.44.14-.94.07-1.33-.17-.25-.16-.48-.44-.43-.73.08-.48.74-.56,1.2-.42.78.24,1.46.8,1.83,1.53-.61.33-1.46-.08-1.62-.75s.41-1.4,1.1-1.45,1.34.57,1.36,1.25c-.25.9-1.43,1.39-2.24.93s-1.02-1.51-.7-2.34,1.1-1.41,1.94-1.71c.52-.19,1.27-.21,1.49.3.17.4.3.84.25,1.27s-.3.86-.7,1.03c-.14.06-.3.09-.45.1-.45.04-.93-.01-1.31-.26s-.66-.69-.6-1.14c.07-.6.75-1.02,1.34-.89s1.01.74,1,1.34c0,.51-.61.85-1.11.75s-.88-.51-1.15-.95c-.18-.29-.34-.62-.32-.97s.26-.7.6-.74c.34-.04.64.2.86.46.27.32.5.69.65,1.09.07.17-.06.36-.22.43s-.35.06-.53.03c-.54-.07-1.09-.18-1.56-.44s-.87-.71-.96-1.25c-.14-.81.6-1.66,1.41-1.59s1.39,1.1.98,1.81c-.31.54-1.04.73-1.64.56-.46-.13-.87-.48-1.03-.93s-.04-1,.34-1.31c.55-.44,1.82-.09,1.37.77-.25.47-.93.44-1.46.35-.34-.06-.41-.58-.17-.84s.62-.3.97-.31c.55-.01,1.15.05,1.53.44s.35,1.19-.17,1.36c-.27.09-.56-.01-.82-.13-.24-.11-.49-.25-.65-.46s-.23-.52-.09-.76c.15-.26.51-.34.8-.26s.53.29.74.51c.1.1.2.23.2.37-.01.26-.36.35-.62.37-.36.02-.73.04-1.09.06-.35.02-.72-.13-.92-.42s-.18-.73.08-.97c.21-.2.52-.24.81-.26.61-.05,1.27-.03,1.77.33.29.21.47.55.56.89.11.39.07.89-.28,1.09-.42.23-.98-.25-.9-.73s.61-.77,1.09-.71c.65.09,1.14.78,1.02,1.42.01.07.02.15.03.22-.37.05-.77.01-1.05-.23s-.35-.73-.08-.98c.26-.23.69-.15.94.09s.37.58.48.91-.14.69-.46.83-.68.1-1.03.07c-.41-.04-.85-.1-1.14-.39-.33-.33-.34-.92-.05-1.29s.82-.51,1.28-.38c.41.12.77.47.79.89s-.37.85-.79.77c-.98-.18-1.86-.83-2.33-1.7.72-.08,1.47.18,1.99.68.14.13.27.29.29.48.04.29-.19.57-.47.68s-.58.1-.87.08-.6-.03-.86-.17-.47-.42-.41-.71c.06-.31.4-.5.71-.49s.6.18.85.38c.64.49,1.17,1.22,1.1,2.02-.02.2-.31.22-.5.15-.52-.2-.92-.66-1.07-1.19.45-.08.83.49.66.92s-.71.62-1.16.52-.81-.44-1.07-.82c-.2-.29-.37-.63-.3-.98.03-.16.25-.17.41-.14.5.11.96.38,1.31.76.22.24.39.63.17.86-.68.2-1.43.15-2.07-.14-.3-.13-.62-.37-.63-.7-.01-.27.2-.52.45-.63s.54-.1.81-.06c.46.06.93.22,1.25.57s.41.92.12,1.28c-.13.16-.4.05-.55-.09-.24-.21-.44-.46-.6-.74-.11-.19.05-.46.26-.53s.44-.01.66.06c1,.36,1.86,1.11,2.36,2.05-.17.09-.39,0-.51-.15s-.15-.35-.19-.54c-.09-.5-.16-1.09.19-1.47.28-.29.78-.33,1.1-.08s.4.75.19,1.09c-.57-.2-.92-.88-.75-1.46s.83-.97,1.42-.83c.08.02.17.05.23.11.22.19.11.59-.15.73s-.57.11-.85.05c-.24-.05-.48-.11-.72-.19-.12-.04-.24-.08-.35-.16s-.18-.17-.24-.28c-.22-.36-.28-.83-.06-1.19s.76-.5,1.07-.23c.06.05.11.11.14.18.13.29-.13.63-.44.72s-.63-.02-.93-.13c-.47-.17-.96-.39-1.28-.77s-.44-.99-.14-1.39c.24-.32.69-.44,1.07-.31s.66.47.75.86c.04.16-.22.19-.37.13-.42-.17-.82-.39-1.19-.66-.14-.1-.27-.21-.32-.37-.12-.38.33-.69.71-.81.42-.13.85-.21,1.28-.23.36-.02.75,0,1.06.19s.51.61.35.94c-.21.44-.82.45-1.3.4-.45-.05-.85-.38-.99-.81s-.02-.93.31-1.24c.03-.03.07-.06.12-.08.18-.04.27.24.18.41-.17.34-.63.46-.99.34s-.63-.42-.84-.73c-.34-.52-.55-1.13-.6-1.75-.04-.44.02-.93.33-1.23.25-.24.63-.33.95-.22s.58.41.62.75c.03.21-.1.41-.26.54-.4.35-1.03.42-1.48.13s-.61-.96-.31-1.4c.08-.11.18-.21.3-.28.38.44.53,1.06.4,1.63-.02-.37.03-.75.13-1.1.05-.17.31-.04.41.1.31.44.65.96.5,1.48-1,.04-2.01-.51-2.51-1.38-.21-.36-.32-.86-.02-1.16.2-.2.53-.23.79-.14s.49.28.7.47.41.38.6.58c.12.13.17.32.12.49-.47.12-.96.23-1.43.12s-.9-.54-.85-1.02c.05-.39.39-.68.72-.89.43-.27.89-.48,1.38-.62l.39-.11c.15.38.2.8.15,1.21,0,.07-.03.16-.1.18-1.05.33-2.17-.22-3.07-.86-.44-.32-.91-.74-.9-1.28,0-.38.25-.72.56-.94s.67-.33,1.04-.45c.49-.15.93.49.78.98s-.66.78-1.15.93c-.84.27-1.75.28-2.6.04-.59-.17-1.22-.57-1.25-1.19-.03-.67.64-1.12,1.23-1.44.32-.17.65-.35,1.01-.41s.76,0,1.02.24c.29.27.27.78.03,1.1s-.62.51-1,.64c-.58.2-1.21.3-1.8.16s-1.14-.57-1.31-1.15c.7-.13,1.47.12,1.96.64.22.24.4.56.36.88-.06.56-.75.89-1.3.75s-.96-.6-1.25-1.09c-.13-.21.02-.5.24-.61s.48-.09.73-.05c.44.06.87.16,1.29.28.31.09.64.21.85.46s.29.65.08.9c-.25.29-.72.22-1.09.1-.88-.28-1.71-.69-2.47-1.21-.34-.23-.69-.68-.43-1,.1-.12.27-.17.43-.19.99-.14,2.03.52,2.3,1.48.09.3-.09.63-.35.8s-.59.2-.9.18c-1.1-.08-2.12-.87-2.48-1.92-.05-.16-.09-.33-.03-.48.08-.18.3-.25.49-.29.64-.14,1.33-.27,1.94-.02s1.04,1.03.68,1.59c-.33.51-1.06.52-1.67.47-.23-.02-.38-.26-.41-.48-.07-.49.26-.97.67-1.25.49-.33,1.27-.4,1.6.1.15.23.16.54.09.81-.24.92-1.3,1.39-2.25,1.42-1.41.05-2.83-.58-3.72-1.67-.23-.28-.44-.66-.29-.99.1-.24.36-.38.61-.45.96-.26,2.07.45,2.24,1.43.02.11.03.23-.04.32-.12.17-.37.12-.56.06-.24-.08-.5-.17-.68-.35s-.29-.47-.18-.7c.06-.13.18-.22.3-.29.41-.25.9-.37,1.38-.32.52.05.69.75.61,1.27-.06.4-.22.83-.58.99-.18.08-.39.08-.59.07-.82-.07-1.6-.42-2.2-.98-.22-.21-.44-.5-.38-.8.05-.28.31-.48.58-.57.95-.34,2.12.37,2.26,1.36.07.46-.45.8-.92.85-.75.08-1.59-.36-1.72-1.1-.05-.28.03-.62.28-.77.27-.16.64-.04.85.2s.3.55.38.85c.09.34.14.76-.14.97-.11.09-.26.11-.4.13-.72.07-1.46-.13-2.04-.57-.34-.26-.62-.81-.28-1.07.19-.15.47-.09.65.06s.27.39.34.61c.07.24.12.5.14.75.04.41-.43.72-.84.67s-.75-.32-1.06-.58c-.37-.31-.74-.62-1.11-.93-.13-.11-.11-.34,0-.46s.3-.17.47-.16c.42,0,.83.24,1.04.6s.22.84.02,1.2c-.09.17-.34.18-.53.13-.59-.15-1.08-.67-1.19-1.27.61.13,1.18.43,1.63.87.34.33,0,1-.47,1.02s-.87-.43-.93-.9c-.02-.16.01-.36.16-.43.08-.04.17-.03.25-.01.54.07,1.09.19,1.52.51s.7.93.49,1.42l-.13.31c-.69-.24-1.34-.57-1.94-.99-.3-.21-.61-.48-.68-.84-.04-.2.12-.4.32-.47s.41-.03.61.01c.42.09.83.21,1.23.37.46.19.97.51,1,1.01.03.55-.57.95-1.12.93-.35,0-.63-.35-.65-.7s.14-.69.36-.96c.68-.85,1.82-1.22,2.91-1.29.56-.04,1.16,0,1.64.3s.81.9.64,1.43c-.09.28-.57.19-.67-.09s.07-.58.25-.81c1.01-1.27,2.9-1.72,4.4-1.1.34.14.7.37.8.73s-.18.83-.55.75c-.21-.04-.35-.23-.42-.43-.23-.67.31-1.46,1.01-1.55s1.4.43,1.59,1.12c.08.29-.37.41-.66.32-.47-.15-.89-.45-1.19-.85-.05-.26.15-.52.4-.62s.52-.07.78-.03c1.49.27,2.82,1.27,3.5,2.63-.98.15-2.03-.25-2.66-1.02-.12-.15.17-.28.36-.25,1.39.24,2.73.75,3.92,1.52-.97.17-2.01-.19-2.67-.93.65.36,1.3.72,1.96,1.07.41.23.83.46,1.14.81s.49.85.34,1.3c-1.22.15-2.5.02-3.56-.59,1.58.13,3.07,1,3.96,2.31.25.37.41.96.02,1.18-.08.05-.18.07-.28.08-1.14.19-2.34.02-3.39-.48-.17-.08-.36-.27-.24-.42,1.73.13,3.36,1.21,4.15,2.75.14.27-.04.63-.3.78s-.59.17-.9.18-.66.02-.96-.1-.57-.38-.59-.7c1.1.48,2.02,1.38,2.53,2.47.12.26.23.55.19.84s-.25.57-.54.59c-.2.02-.39-.09-.57-.2-.42-.26-.83-.54-1.24-.83,1.06.47,2.02,1.15,2.82,1.99-.6.39-1.36.53-2.06.39-.37-.07-.8-.35-.72-.72v-.29c1.46-.09,2.95.56,3.88,1.71.05.06.1.13.1.21,0,.17-.22.24-.39.25-.86.05-1.73-.05-2.56-.29-.47-.14-.96-.35-1.17-.79s.06-1.1.54-1.07c.19.01.37.13.52.25.28.24.53.61.4.95-.14.37-.61.46-1.01.46-1.47.02-2.95-.37-4.23-1.1-.29-.17-.58-.36-.76-.65s-.2-.69.02-.94c.29-.33.83-.26,1.23-.08.88.39,1.59,1.15,1.92,2.06.08.22-.21.39-.44.4-.88.05-1.66-.88-1.47-1.73.02-.07.04-.14.07-.2.12-.22.4-.33.66-.31s.49.14.71.26c1.03.58,1.95,1.37,2.68,2.31-1.23.41-2.73-.43-3.01-1.7,1.48.04,2.94.61,4.05,1.58-.54.33-1.25.4-1.8.1s-.89-1-.7-1.6c.02-.06.05-.13.12-.15.8-.19,1.66.62,1.51,1.43-.02.08-.04.17-.09.24-.05.06-.11.1-.18.14-.93.53-2.24.24-2.85-.64-.22-.32-.33-.81-.03-1.06.32-.26.79-.04,1.11.23.46.38.86.82,1.19,1.31-.91.25-1.93.02-2.65-.59-.1-.09-.21-.19-.23-.33s.07-.29.21-.29c.93.06,1.79.72,2.09,1.6.05.16.09.35-.02.49-.11.14-.32.15-.5.14-1.28-.1-2.49-.85-3.14-1.95,1.83-.12,3.7.8,4.71,2.34-.97,0-1.93-.47-2.52-1.24-.04-.05-.07-.1-.08-.16-.02-.19.24-.27.43-.28,1.77-.05,3.55.54,4.93,1.64-.56.06-1.14.12-1.7-.01s-1.09-.45-1.33-.97c-.08-.18.07-.39.25-.45s.39-.01.58.04c.46.12.92.24,1.32.48s.75.62.84,1.08c-1.46.11-2.95-.05-4.36-.46-.35-.1-.71-.23-.98-.48s-.42-.66-.28-1c.23-.53.97-.57,1.53-.44,1.11.25,2.14.82,2.96,1.61.16.15.07.44-.11.56s-.42.12-.64.12c-.82-.02-1.67-.1-2.36-.54-.29-.18-.54-.43-.66-.75s-.09-.7.14-.96c1.14-.08,2.3.39,3.08,1.23.19.21.37.45.43.73s-.02.61-.25.78c-.21.15-.49.15-.75.14-.98-.07-1.95-.34-2.83-.78-.52-.26-1.08-.7-1.01-1.28.01-.1.05-.21.1-.29.32-.5,1.16-.3,1.45.21s.21,1.14.11,1.72c-.04.21-.11.47-.32.52-.31.07-.63-.08-.91-.25-.93-.55-1.76-1.27-2.43-2.11-.04-.05-.07-.09-.08-.15-.03-.14.12-.26.27-.26s.27.09.37.19c.57.51.89,1.29.83,2.05-.46-.04-.99-.22-1.09-.67s.33-.83.76-.87.85.19,1.19.46c.38.29.75.79.54,1.22-.24.5-.96.42-1.49.26l1.15.63c-.66.3-1.54-.17-1.67-.88,1.07.06,2.1.7,2.62,1.64-.29-.45-.48-.96-.56-1.49.3-.26.76-.21,1.13-.07.88.33,1.58,1.1,1.83,2-.32.34-.94.24-1.23-.13s-.3-.9-.16-1.35c.08-.27.47-.28.75-.21.8.22,1.54.67,2.1,1.3-.61.22-1.27.37-1.9.22s-1.21-.67-1.25-1.32c-.03-.42.61-.62.92-.34s.29.79.08,1.16c-.33.57-1.06.85-1.7.73s-1.19-.61-1.47-1.21c-.19-.42-.19-1.02.22-1.21,1.25-.58,2.91.05,3.47,1.31.09.21.12.51-.09.59-.06.02-.12.02-.18.02-.47,0-.94-.02-1.38-.17s-.85-.48-.98-.93Z"/>
  <path class="cls-3" d="M12.19,4.68l-.82-.12c-.88-.72-.56-2.26.37-2.93s2.17-.64,3.28-.44c.6.11,1.21.28,1.66.68s.71,1.09.44,1.63-1.14.72-1.49.23l-.15-1.08c.73.02,1.49.16,2.11.55s1.08,1.09,1.04,1.83-.69,1.43-1.42,1.38-1.28-1-.86-1.6c.85-.14,1.78-.25,2.54.17s1.1,1.62.43,2.16c-.58.47-1.43.74-2.08.37s-.7-1.55.02-1.76c.58-.17,1.11.36,1.48.84.73.95,1.45,2.05,1.36,3.24s-1.49,2.29-2.51,1.65c-.69-.43-.84-1.36-.91-2.18-.08-.91,1.19-1.26,2.09-1.1,1.44.26,3.01,1.32,2.84,2.77-.11.95-.92,1.64-1.67,2.23-.68.54-1.39,1.09-2.24,1.31s-1.86.03-2.35-.69-.13-1.94.73-2.05c.62-.08,1.22.45,1.27,1.07s-.41,1.22-1.01,1.39c-1.3.37-2.45-1.32-2.04-2.61,1.17.02,2.17,1.24,1.95,2.39-1.05-.22-1.59-1.4-1.69-2.47-.1-1.03.15-2.21,1.02-2.78s2.36.04,2.25,1.08c-.3-.3-.25-.85.03-1.17.69-.8,2.22-.17,2.35.88s-.82,2.01-1.86,2.18-2.1-.28-2.96-.89c-.38-.27-.75-.58-.96-.99-.52-1.02.26-2.45,1.4-2.55s2.17,1.15,1.85,2.25c-.49-.86-.47-2,.05-2.84.5.36.78,1,.71,1.61-1.83-.09-3.37-1.97-3.1-3.79.1-.65.47-1.34,1.11-1.51s1.42.49,1.15,1.1c-.17.38-.63.53-1.04.56-.73.05-1.48-.16-2.08-.58.62.46.8,1.43.38,2.08s-1.38.88-2.05.49c.58.55-.12,1.73-.88,1.5-.34-.51-.39-1.2-.13-1.75.32.2.59.46.82.77.15.2.24.53.03.65s-.19-.44-.05-.24c.37.51-.53.97-1.15.98-.67,0-1.45-.04-1.83-.59-.44-.64.38-1.48,1.15-1.53,1.09-.07,2.17.79,2.35,1.87-.61.51-1.61.45-2.16-.11s-.59-1.57-.07-2.17c.61.34.41,1.44-.27,1.64s-1.41-.43-1.44-1.14.51-1.35,1.18-1.58c.54-.2,1.11.57.77,1.03-.61.48-1.55.39-2.14-.11s-.84-1.33-.74-2.1c.13-1,.95-1.96,1.96-1.96s1.87,1.25,1.31,2.09c-.62.67-1.81.61-2.44-.05s-.7-1.74-.27-2.54c.32-.59.92-1.06,1.59-1.06s1.33.59,1.27,1.25c-.06.72-.82,1.15-1.5,1.4-1.48.53-3.07.78-4.65.72-.16-.24-.2-.56-.12-.84h.75c.1.6.13,1.34-.39,1.66-.75.45-1.64.67-2.52.62-.2-.57-.26-1.2-.16-1.8,1.74-.55,3.78,1.05,3.66,2.87-.5.38-1.26.59-1.74.18s0-1.46.56-1.17c.9.41.49,1.94-.44,2.27s-1.94-.1-2.83-.53c-.65.06-1.03-.86-.7-1.41s1.08-.73,1.72-.66c.87.1,1.75.63,1.99,1.47s-.44,1.89-1.31,1.8c-.53-.05-1.07-.23-1.41-.64s-.37-1.09.03-1.43c1.03,1.25.68,3.39-.7,4.25-.03-.6-.07-1.19-.1-1.79.27-.36.85.22.68.63-.2.5-.97.64-1.33.24s-.16-1.15.35-1.31"/>
</svg>