<?xml version="1.0" encoding="UTF-8"?>
<svg id="Layer_1" data-name="Layer 1" xmlns="http://www.w3.org/2000/svg" viewBox="0 0 24.88 59.13">
  <defs>
    <style>
      .cls-1 {
        fill: #231f20;
      }

      .cls-2 {
        fill: #fff;
      }

      .cls-2, .cls-3, .cls-4 {
        stroke-miterlimit: 10;
      }

      .cls-2, .cls-4 {
        stroke: #231f20;
      }

      .cls-3 {
        stroke: #ed2991;
        stroke-width: .1px;
      }

      .cls-3, .cls-4 {
        fill: none;
      }

      .cls-5 {
        fill: #ed2991;
      }
    </style>
  </defs>
  <circle class="cls-2" cx="12.09" cy="11.53" r="6.03"/>
  <line class="cls-4" x1="12.09" y1="17.56" x2="12.09" y2="52.52"/>
  <line class="cls-4" x1="12.09" y1="52.52" x2="5.84" y2="58.77"/>
  <line class="cls-4" x1="18.71" y1="58.58" x2="12.09" y2="52.71"/>
  <line class="cls-4" x1="11.89" y1="30.67" x2="6.04" y2="36.53"/>
  <line class="cls-4" x1="12.32" y1="30.68" x2="18.17" y2="36.53"/>
  <path class="cls-1" d="M9.26,9.21h0s.04,0,.07,0h0s.04,0,.07,0c0,0,0,0,0,0l.06.03h0s.03.02.05.04c0,0,0,0,0,0l.04.05s0,0,0,0l.03.06s0,0,0,0v.07s0,0,0,0v.07s0,0,0,0l-.03.06s0,0,0-.01l-.04.05s0,0,.01-.01l-.05.04s.04-.03.07-.04l-.06.03s.02,0,.03-.01h-.07s.02,0,.02,0h-.07s.01,0,.02,0l-.06-.03s.01,0,.02,0l-.05-.04s0,0,.01.01l-.04-.05s0,0,0,.01l-.03-.06s0,0,0,.01v-.07s0,0,0,.01v-.07s0,0,0,.01l.03-.06h0c.09-.03.19-.07.28-.11,0,0,0,0,0,0l.06.03s0,0,0,0l.05.04s0,0,0,0l.04.05s0,0,0,0l.03.06s0,0,0-.01v.07s0,0,0-.01v.07s0-.01,0-.01l-.03.06s0,0,0,0l-.04.05s0,0,0,0l-.05.04s.01,0,.02,0l-.06.03s.01,0,.02,0h-.07s.02,0,.04,0h-.07s.03,0,.04,0l-.06-.03s.03.02.04.03l-.05-.04s.02.02.04.04l-.04-.05s.02.03.03.05l-.03-.06s0,.03.01.04v-.07s0,.03,0,.05v-.07s0,.03,0,.05l.03-.06s-.02.03-.03.05l.04-.05s-.02.02-.03.03l.05-.04s-.03.02-.04.02l.06-.03s-.02,0-.03,0h.07s-.01,0-.02,0h.07s-.01,0-.02,0l.06.03s0,0-.01,0l.05.04s0,0-.01-.01l.04.05s0-.01-.01-.02l.03.06s-.01-.03-.01-.05v.07s0-.08,0-.12v.07s0-.05.01-.07l-.03.06s.01-.03.02-.04l-.04.05s.02-.02.03-.03l-.05.04s.02-.02.03-.02l-.06.03s.02,0,.03,0h-.07s.02,0,.03,0h-.07s.02,0,.03,0l-.06-.03s.01,0,.02.01l-.05-.04s.01.01.02.02l-.04-.05s0,.01.01.02l-.03-.06s0,.01,0,.02v-.07s0,.01,0,.02v-.07s0,.01,0,.02l.03-.06s0,.02-.02.03l.04-.05s-.02.03-.04.04l.05-.04s-.03.02-.05.03l.06-.03s-.04.01-.06.02h.07s-.04,0-.06,0h.07s-.03,0-.05,0l.06.03s-.03-.01-.04-.02l.05.04s-.02-.02-.03-.03l.04.05s-.02-.03-.02-.04l.03.06s-.01-.03-.01-.05v.07s0-.04,0-.05v.07s0-.03,0-.04l-.03.06s.01-.02.02-.03l-.04.05s.02-.02.03-.03l-.05.04s.02-.02.04-.02l-.06.03s.03-.01.05-.01h-.07s.03,0,.05,0h-.07s.04,0,.06,0l-.06-.03s.03.02.05.03l-.05-.04s.02.02.04.04l-.04-.05s.02.03.03.05l-.03-.06s.02.05.02.07v-.07s0,.05,0,.08v-.07s0,.06-.01.08l.03-.06s-.03.06-.05.09l.04-.05s-.05.06-.09.09l.05-.04s-.05.04-.08.05l.06-.03s-.03.01-.05.01h.07s-.02,0-.03,0h.07s-.02,0-.02,0l.06.03s-.01,0-.02-.01l.05.04s-.01,0-.02-.02l.04.05s-.01-.02-.02-.03l.03.06c-.02-.06-.04-.12-.05-.18v.07s0-.05,0-.08v.07s0-.04,0-.06l-.03.06s.02-.03.03-.04l-.04.05s.02-.02.03-.03l-.05.04s.02-.01.03-.02l-.06.03s.02,0,.03,0h-.07s.03,0,.04,0h-.07s.03,0,.04,0l-.06-.03s.03.01.04.02l-.05-.04s.02.02.03.03l-.04-.05s.02.03.02.04l-.03-.06s.01.04.02.06v-.07s0,.05,0,.07v-.07s0,.05-.01.08l.03-.06s-.02.05-.04.07l.04-.05s-.03.03-.04.04l.05-.04s-.02.02-.04.02l.06-.03s-.02,0-.04.01h.07s-.02,0-.04,0h.07s-.02,0-.04,0l.06.03s-.02,0-.03-.02l.05.04s-.01-.01-.02-.02l.04.05s0-.01-.01-.02l.03.06s0-.02,0-.03c0-.03-.02-.06-.03-.09-.03-.06-.08-.09-.13-.13l.05.04s-.01,0-.02-.01l.04.05s0,0,0-.01l.03.06s0,0,0-.01v.07s0,0,0-.01v.07s0-.01,0-.02l-.03.06s0-.01.01-.02l-.04.05s.02-.02.03-.03l-.05.04s.03-.02.04-.02l-.06.03s.07-.02.11-.03h-.07s.07,0,.1,0h-.07s.06,0,.08.01l-.06-.03s.05.02.07.04l-.05-.04s.04.03.05.06l-.04-.05s.03.04.04.07l-.03-.06s.02.05.02.07v-.07s0,.04,0,.07v-.07s0,.04,0,.06l.03-.06s-.02.04-.03.06l.04-.05s-.03.03-.05.05l.05-.04s-.04.02-.05.03l.06-.03s-.03.01-.05.01h.07s-.03,0-.05,0h.07s-.02,0-.04,0l.06.03s-.02,0-.02-.01l.05.04s0,0-.01-.02l.04.05s0-.01-.01-.02l.03.06s0-.02,0-.03v.07s0-.05,0-.07v.07s0-.06.01-.08l-.03.06s.04-.07.06-.1l-.04.05s.07-.08.11-.11l-.05.04s.01,0,.02-.01l-.06.03s0,0,.01,0h-.07s0,0,0,0h-.07s0,0,.01,0l-.06-.03s0,0,0,0l-.05-.04s0,0,.01.01l-.04-.05s.05.08.06.12l-.03-.06s.03.06.03.1v-.07s0,.01,0,.02v-.07s0,0,0,0l.03-.06s0,0,0,0l.04-.05s0,0,0,0l.05-.04s0,0,0,0l.06-.03s0,0-.01,0h.07s-.03,0-.04-.01h.07s-.09,0-.13-.03l.06.03s-.04-.02-.06-.03l.05.04s-.01,0-.02-.01l.04.05s0-.01-.01-.02l.03.06s0,0,0-.01v.07s0-.02,0-.03v.07s0-.06.02-.1l-.03.06s.05-.09.08-.14l-.04.05s.07-.08.11-.11l-.05.04s.03-.02.05-.03l-.34-.09s.01.02.02.03l-.03-.06s.01.04.02.06v-.07s0,.04,0,.06v-.07s0,.04,0,.06l.03-.06s-.02.03-.03.05l.04-.05s-.03.03-.04.04l.05-.04s-.03.02-.05.03l.06-.03s-.04.01-.06.02h.07s-.03,0-.04,0c-.03,0-.07,0-.1.02-.03.01-.06.03-.08.05-.02.02-.04.05-.05.08-.02.03-.02.06-.02.1,0,.06.02.13.07.18s.11.07.18.07c.08,0,.17-.02.24-.06,0,0,.02-.01.03-.02.03-.02.05-.04.07-.06.03-.03.06-.06.08-.1s.04-.07.05-.11c0-.02,0-.04.01-.07s0-.04,0-.07c0-.04,0-.09-.02-.13,0-.03-.02-.06-.03-.09,0-.01-.01-.02-.02-.03-.03-.05-.09-.1-.15-.11-.06-.01-.14-.01-.19.03-.04.02-.08.05-.11.08-.02.02-.04.04-.06.06-.03.03-.06.07-.09.11-.02.02-.03.04-.04.07-.02.04-.04.09-.06.13-.01.04-.02.07-.03.11,0,.02,0,.03,0,.05,0,0,0,0,0,.01,0,.02,0,.05,0,.07.01.05.04.1.08.14,0,0,0,0,.02.01.02.02.04.03.06.05.01,0,.03.01.04.02.05.02.09.04.14.05.01,0,.03,0,.04,0,.03,0,.07.01.11.01.02,0,.03,0,.05,0,.02,0,.03,0,.05,0,.02,0,.05-.02.06-.03,0,0,.03-.02.03-.02.03-.02.05-.05.07-.08,0,0,.02-.04.01-.03,0-.02.01-.02.01-.04,0-.02.01-.05,0-.08s0-.05-.01-.08c0,0,0-.01,0-.02-.01-.05-.04-.1-.06-.14-.01-.03-.03-.06-.04-.08s-.04-.05-.06-.08c-.02-.02-.04-.03-.06-.05,0,0,0,0,0,0l-.06-.03h0s0,0,0,0c-.02,0-.05,0-.07,0-.02,0-.05,0-.07,0,0,0,0,0,0,0-.02,0-.05.02-.07.03-.02.01-.04.03-.06.05-.06.05-.11.1-.15.17s-.08.13-.1.2c0,.01,0,.03,0,.04,0,.03-.01.07-.01.1,0,.02,0,.05,0,.07,0,.05.01.08.04.13,0,0,0,.01,0,.02.01.02.03.04.05.06s.04.03.06.05c0,0,.01,0,.02.01.03.01.06.03.09.03s.07.01.1.01c.09,0,.18-.03.25-.08.02-.02.05-.04.07-.06s.04-.05.06-.08c.03-.04.04-.08.06-.12s.02-.09.03-.13,0-.09-.01-.14c-.02-.09-.07-.17-.13-.24-.03-.04-.07-.06-.1-.09s-.08-.05-.13-.06c-.03-.01-.05-.02-.08-.02-.05,0-.1-.02-.15-.01s-.1,0-.14.02c-.01,0-.03,0-.04.01-.03.01-.06.02-.09.04-.06.03-.1.08-.14.13,0,0,0,0,0,.01-.01.02-.02.05-.03.07s-.01.05-.01.08c0,0,0,0,0,0,0,.02,0,.05,0,.07,0,0,0,0,0,0,0,.02.02.05.03.06.01.02.03.04.05.06.02.02.05.04.08.06l-.05-.04s.01,0,.02.01l-.04-.05s0,.01.01.02l-.03-.06s.01.04.02.06c.02.06.05.11.09.15.05.04.08.06.15.08.04.01.08.02.12.02s.08,0,.12-.02c.03-.01.06-.02.08-.04s.05-.04.07-.05c.03-.03.06-.06.08-.09.02-.04.04-.08.06-.12,0-.02.01-.04.02-.06,0-.04.02-.09.01-.14,0-.08-.02-.17-.07-.24-.02-.02-.04-.05-.06-.07s-.05-.04-.07-.06c-.03-.02-.07-.04-.11-.05,0,0-.02,0-.03,0-.03,0-.06-.01-.09-.01-.07,0-.12.02-.18.04-.04.02-.07.04-.1.07,0,0-.01.01-.02.02-.02.02-.04.05-.05.07-.04.07-.06.16-.06.24,0,.07.01.15.04.22.03.08.05.17.12.23.09.09.22.11.34.08.06-.02.12-.05.17-.08.03-.03.07-.05.1-.08s.05-.06.08-.1c.04-.05.07-.11.09-.18.01-.04.02-.08.02-.12,0-.02,0-.04,0-.07,0-.08-.02-.16-.07-.23-.08-.14-.23-.23-.4-.23-.08,0-.16.02-.22.06-.03.02-.06.04-.09.07-.02.02-.04.04-.05.07s-.02.05-.03.08c-.03.08-.02.16,0,.23s.06.14.1.2.12.1.19.12c.08.03.16.02.24,0s.15-.06.21-.11c.08-.06.13-.16.13-.27,0-.12-.07-.24-.17-.3-.08-.05-.2-.07-.29-.03-.06.02-.1.05-.15.09-.03.03-.05.06-.07.09-.05.08-.06.17-.07.26,0,.02,0,.04,0,.07,0,.04,0,.08.02.12.02.06.04.1.09.15.04.04.09.07.15.08.06.01.1.01.16,0,.03,0,.06-.02.09-.03.04-.02.07-.05.1-.07.06-.05.1-.13.12-.2s.02-.17,0-.24c-.01-.04-.03-.08-.05-.11-.02-.02-.03-.05-.06-.07s-.05-.04-.07-.06c-.06-.05-.15-.07-.23-.07-.14,0-.28.09-.31.22-.02.08,0,.16.03.23.03.06.1.12.17.13h.07s.07,0,.1-.01c.02,0,.04-.02.06-.03.03-.02.05-.04.06-.07.02-.04.04-.09.04-.14,0,0,0,0,0-.01,0-.02,0-.05-.01-.07,0-.02-.02-.05-.03-.07,0,0,0,0,0-.01-.03-.05-.06-.07-.1-.1s-.11-.05-.17-.05c0,0-.01,0-.02,0-.03,0-.05,0-.08.01-.03,0-.06.02-.09.03-.09.04-.17.12-.2.21-.01.05-.01.07,0,.12,0,.04,0,.04.02.07,0,.02,0,.02.02.04.06.1.19.16.31.12.06-.02.12-.06.15-.11.02-.03.03-.06.03-.09,0-.03,0-.07,0-.1-.02-.06-.06-.12-.11-.15s-.13-.05-.19-.03h0Z"/>
  <path class="cls-1" d="M14.12,9.11h0s.04,0,.07,0h0s.04,0,.07,0c0,0,0,0,0,0l.06.03h0s.03.02.05.04c0,0,0,0,0,0l.04.05s0,0,0,0l.03.06s0,0,0,0v.07s0,0,0,0v.07s0,0,0,0l-.03.06s0,0,0-.01l-.04.05s0,0,.01-.01l-.05.04s.04-.03.07-.04l-.06.03s.02,0,.03-.01h-.07s.02,0,.02,0h-.07s.01,0,.02,0l-.06-.03s.01,0,.02,0l-.05-.04s0,0,.01.01l-.04-.05s0,0,0,.01l-.03-.06s0,0,0,.01v-.07s0,0,0,.01v-.07s0,0,0,.01l.03-.06h0c.09-.03.19-.07.28-.11,0,0,0,0,0,0l.06.03s0,0,0,0l.05.04s0,0,0,0l.04.05s0,0,0,0l.03.06s0,0,0-.01v.07s0,0,0-.01v.07s0-.01,0-.01l-.03.06s0,0,0,0l-.04.05s0,0,0,0l-.05.04s.01,0,.02,0l-.06.03s.01,0,.02,0h-.07s.02,0,.04,0h-.07s.03,0,.04,0l-.06-.03s.03.02.04.03l-.05-.04s.02.02.04.04l-.04-.05s.02.03.03.05l-.03-.06s0,.03.01.04v-.07s0,.03,0,.05v-.07s0,.03,0,.05l.03-.06s-.02.03-.03.05l.04-.05s-.02.02-.03.03l.05-.04s-.03.02-.04.02l.06-.03s-.02,0-.03,0h.07s-.01,0-.02,0h.07s-.01,0-.02,0l.06.03s0,0-.01,0l.05.04s0,0-.01-.01l.04.05s0-.01-.01-.02l.03.06s-.01-.03-.01-.05v.07s0-.08,0-.12v.07s0-.05.01-.07l-.03.06s.01-.03.02-.04l-.04.05s.02-.02.03-.03l-.05.04s.02-.02.03-.02l-.06.03s.02,0,.03,0h-.07s.02,0,.03,0h-.07s.02,0,.03,0l-.06-.03s.01,0,.02.01l-.05-.04s.01.01.02.02l-.04-.05s0,.01.01.02l-.03-.06s0,.01,0,.02v-.07s0,.01,0,.02v-.07s0,.01,0,.02l.03-.06s0,.02-.02.03l.04-.05s-.02.03-.04.04l.05-.04s-.03.02-.05.03l.06-.03s-.04.01-.06.02h.07s-.04,0-.06,0h.07s-.03,0-.05,0l.06.03s-.03-.01-.04-.02l.05.04s-.02-.02-.03-.03l.04.05s-.02-.03-.02-.04l.03.06s-.01-.03-.01-.05v.07s0-.04,0-.05v.07s0-.03,0-.04l-.03.06s.01-.02.02-.03l-.04.05s.02-.02.03-.03l-.05.04s.02-.02.04-.02l-.06.03s.03-.01.05-.01h-.07s.03,0,.05,0h-.07s.04,0,.06,0l-.06-.03s.03.02.05.03l-.05-.04s.02.02.04.04l-.04-.05s.02.03.03.05l-.03-.06s.02.05.02.07v-.07s0,.05,0,.08v-.07s0,.06-.01.08l.03-.06s-.03.06-.05.09l.04-.05s-.05.06-.09.09l.05-.04s-.05.04-.08.05l.06-.03s-.03.01-.05.01h.07s-.02,0-.03,0h.07s-.02,0-.02,0l.06.03s-.01,0-.02-.01l.05.04s-.01,0-.02-.02l.04.05s-.01-.02-.02-.03l.03.06c-.02-.06-.04-.12-.05-.18v.07s0-.05,0-.08v.07s0-.04,0-.06l-.03.06s.02-.03.03-.04l-.04.05s.02-.02.03-.03l-.05.04s.02-.01.03-.02l-.06.03s.02,0,.03,0h-.07s.03,0,.04,0h-.07s.03,0,.04,0l-.06-.03s.03.01.04.02l-.05-.04s.02.02.03.03l-.04-.05s.02.03.02.04l-.03-.06s.01.04.02.06v-.07s0,.05,0,.07v-.07s0,.05-.01.08l.03-.06s-.02.05-.04.07l.04-.05s-.03.03-.04.04l.05-.04s-.02.02-.04.02l.06-.03s-.02,0-.04.01h.07s-.02,0-.04,0h.07s-.02,0-.04,0l.06.03s-.02,0-.03-.02l.05.04s-.01-.01-.02-.02l.04.05s0-.01-.01-.02l.03.06s0-.02,0-.03c0-.03-.02-.06-.03-.09-.03-.06-.08-.09-.13-.13l.05.04s-.01,0-.02-.01l.04.05s0,0,0-.01l.03.06s0,0,0-.01v.07s0,0,0-.01v.07s0-.01,0-.02l-.03.06s0-.01.01-.02l-.04.05s.02-.02.03-.03l-.05.04s.03-.02.04-.02l-.06.03s.07-.02.11-.03h-.07s.07,0,.1,0h-.07s.06,0,.08.01l-.06-.03s.05.02.07.04l-.05-.04s.04.03.05.06l-.04-.05s.03.04.04.07l-.03-.06s.02.05.02.07v-.07s0,.04,0,.07v-.07s0,.04,0,.06l.03-.06s-.02.04-.03.06l.04-.05s-.03.03-.05.05l.05-.04s-.04.02-.05.03l.06-.03s-.03.01-.05.01h.07s-.03,0-.05,0h.07s-.02,0-.04,0l.06.03s-.02,0-.02-.01l.05.04s0,0-.01-.02l.04.05s0-.01-.01-.02l.03.06s0-.02,0-.03v.07s0-.05,0-.07v.07s0-.06.01-.08l-.03.06s.04-.07.06-.1l-.04.05s.07-.08.11-.11l-.05.04s.01,0,.02-.01l-.06.03s0,0,.01,0h-.07s0,0,0,0h-.07s0,0,.01,0l-.06-.03s0,0,0,0l-.05-.04s0,0,.01.01l-.04-.05s.05.08.06.12l-.03-.06s.03.06.03.1v-.07s0,.01,0,.02v-.07s0,0,0,0l.03-.06s0,0,0,0l.04-.05s0,0,0,0l.05-.04s0,0,0,0l.06-.03s0,0-.01,0h.07s-.03,0-.04-.01h.07s-.09,0-.13-.03l.06.03s-.04-.02-.06-.03l.05.04s-.01,0-.02-.01l.04.05s0-.01-.01-.02l.03.06s0,0,0-.01v.07s0-.02,0-.03v.07s0-.06.02-.1l-.03.06s.05-.09.08-.14l-.04.05s.07-.08.11-.11l-.05.04s.03-.02.05-.03l-.34-.09s.01.02.02.03l-.03-.06s.01.04.02.06v-.07s0,.04,0,.06v-.07s0,.04,0,.06l.03-.06s-.02.03-.03.05l.04-.05s-.03.03-.04.04l.05-.04s-.03.02-.05.03l.06-.03s-.04.01-.06.02h.07s-.03,0-.04,0c-.03,0-.07,0-.1.02-.03.01-.06.03-.08.05-.02.02-.04.05-.05.08-.02.03-.02.06-.02.1,0,.06.02.13.07.18s.11.07.18.07c.08,0,.17-.02.24-.06,0,0,.02-.01.03-.02.03-.02.05-.04.07-.06.03-.03.06-.06.08-.1s.04-.07.05-.11c0-.02,0-.04.01-.07s0-.04,0-.07c0-.04,0-.09-.02-.13,0-.03-.02-.06-.03-.09,0-.01-.01-.02-.02-.03-.03-.05-.09-.1-.15-.11-.06-.01-.14-.01-.19.03-.04.02-.08.05-.11.08-.02.02-.04.04-.06.06-.03.03-.06.07-.09.11-.02.02-.03.04-.04.07-.02.04-.04.09-.06.13-.01.04-.02.07-.03.11,0,.02,0,.03,0,.05,0,0,0,0,0,.01,0,.02,0,.05,0,.07.01.05.04.1.08.14,0,0,0,0,.02.01.02.02.04.03.06.05.01,0,.03.01.04.02.05.02.09.04.14.05.01,0,.03,0,.04,0,.03,0,.07.01.11.01.02,0,.03,0,.05,0,.02,0,.03,0,.05,0,.02,0,.05-.02.06-.03,0,0,.03-.02.03-.02.03-.02.05-.05.07-.08,0,0,.02-.04.01-.03,0-.02.01-.02.01-.04,0-.02.01-.05,0-.08s0-.05-.01-.08c0,0,0-.01,0-.02-.01-.05-.04-.1-.06-.14-.01-.03-.03-.06-.04-.08s-.04-.05-.06-.08c-.02-.02-.04-.03-.06-.05,0,0,0,0,0,0l-.06-.03h0s0,0,0,0c-.02,0-.05,0-.07,0-.02,0-.05,0-.07,0,0,0,0,0,0,0-.02,0-.05.02-.07.03-.02.01-.04.03-.06.05-.06.05-.11.1-.15.17s-.08.13-.1.2c0,.01,0,.03,0,.04,0,.03-.01.07-.01.1,0,.02,0,.05,0,.07,0,.05.01.08.04.13,0,0,0,.01,0,.02.01.02.03.04.05.06s.04.03.06.05c0,0,.01,0,.02.01.03.01.06.03.09.03s.07.01.1.01c.09,0,.18-.03.25-.08.02-.02.05-.04.07-.06s.04-.05.06-.08c.03-.04.04-.08.06-.12s.02-.09.03-.13,0-.09-.01-.14c-.02-.09-.07-.17-.13-.24-.03-.04-.07-.06-.1-.09s-.08-.05-.13-.06c-.03-.01-.05-.02-.08-.02-.05,0-.1-.02-.15-.01s-.1,0-.14.02c-.01,0-.03,0-.04.01-.03.01-.06.02-.09.04-.06.03-.1.08-.14.13,0,0,0,0,0,.01-.01.02-.02.05-.03.07s-.01.05-.01.08c0,0,0,0,0,0,0,.02,0,.05,0,.07,0,0,0,0,0,0,0,.02.02.05.03.06.01.02.03.04.05.06.02.02.05.04.08.06l-.05-.04s.01,0,.02.01l-.04-.05s0,.01.01.02l-.03-.06s.01.04.02.06c.02.06.05.11.09.15.05.04.08.06.15.08.04.01.08.02.12.02s.08,0,.12-.02c.03-.01.06-.02.08-.04s.05-.04.07-.05c.03-.03.06-.06.08-.09.02-.04.04-.08.06-.12,0-.02.01-.04.02-.06,0-.04.02-.09.01-.14,0-.08-.02-.17-.07-.24-.02-.02-.04-.05-.06-.07s-.05-.04-.07-.06c-.03-.02-.07-.04-.11-.05,0,0-.02,0-.03,0-.03,0-.06-.01-.09-.01-.07,0-.12.02-.18.04-.04.02-.07.04-.1.07,0,0-.01.01-.02.02-.02.02-.04.05-.05.07-.04.07-.06.16-.06.24,0,.07.01.15.04.22.03.08.05.17.12.23.09.09.22.11.34.08.06-.02.12-.05.17-.08.03-.03.07-.05.1-.08s.05-.06.08-.1c.04-.05.07-.11.09-.18.01-.04.02-.08.02-.12,0-.02,0-.04,0-.07,0-.08-.02-.16-.07-.23-.08-.14-.23-.23-.4-.23-.08,0-.16.02-.22.06-.03.02-.06.04-.09.07-.02.02-.04.04-.05.07s-.02.05-.03.08c-.03.08-.02.16,0,.23s.06.14.1.2.12.1.19.12c.08.03.16.02.24,0s.15-.06.21-.11c.08-.06.13-.16.13-.27,0-.12-.07-.24-.17-.3-.08-.05-.2-.07-.29-.03-.06.02-.1.05-.15.09-.03.03-.05.06-.07.09-.05.08-.06.17-.07.26,0,.02,0,.04,0,.07,0,.04,0,.08.02.12.02.06.04.1.09.15.04.04.09.07.15.08.06.01.1.01.16,0,.03,0,.06-.02.09-.03.04-.02.07-.05.1-.07.06-.05.1-.13.12-.2s.02-.17,0-.24c-.01-.04-.03-.08-.05-.11-.02-.02-.03-.05-.06-.07s-.05-.04-.07-.06c-.06-.05-.15-.07-.23-.07-.14,0-.28.09-.31.22-.02.08,0,.16.03.23.03.06.1.12.17.13h.07s.07,0,.1-.01c.02,0,.04-.02.06-.03.03-.02.05-.04.06-.07.02-.04.04-.09.04-.14,0,0,0,0,0-.01,0-.02,0-.05-.01-.07,0-.02-.02-.05-.03-.07,0,0,0,0,0-.01-.03-.05-.06-.07-.1-.1s-.11-.05-.17-.05c0,0-.01,0-.02,0-.03,0-.05,0-.08.01-.03,0-.06.02-.09.03-.09.04-.17.12-.2.21-.01.05-.01.07,0,.12,0,.04,0,.04.02.07,0,.02,0,.02.02.04.06.1.19.16.31.12.06-.02.12-.06.15-.11.02-.03.03-.06.03-.09,0-.03,0-.07,0-.1-.02-.06-.06-.12-.11-.15s-.13-.05-.19-.03h0Z"/>
  <polygon class="cls-3" points="10.28 8.32 10.96 9.5 10.28 10.68 8.92 10.68 8.24 9.5 8.92 8.32 10.28 8.32"/>
  <path class="cls-3" d="M13.08,9.5l-.03-.06.68-1.18h1.36s.68,1.18.68,1.18l-.68,1.18s-1.36,0-1.36,0c-.19-.32-.36-.67-.56-.98-.17-.26-.64-.14-.93-.14h-1.27"/>
  <path class="cls-5" d="M16,9.55c.31-.19.62-.36.95-.51.05-.03.1-.09.11-.15.02-.06,0-.14-.03-.19s-.09-.1-.15-.11h-.07s-.09,0-.13.03c-.32.15-.64.32-.95.51-.05.03-.1.09-.11.15s0,.14.03.19.09.1.15.11.13.01.19-.03h0Z"/>
  <path class="cls-5" d="M8.36,9.38c-.1-.14-.21-.26-.34-.38s-.26-.22-.41-.3c-.07-.04-.15-.08-.23-.12-.03-.02-.06-.03-.09-.03-.03,0-.07,0-.1,0-.06.02-.12.06-.15.11-.03.06-.05.13-.03.19.02.06.06.12.11.15.16.07.32.17.46.28l-.05-.04c.16.12.3.26.42.42l-.04-.05s0,0,0,.01c.02.03.04.05.06.07.02.02.05.04.09.04.06.02.14,0,.19-.03s.1-.09.11-.15.01-.14-.03-.19h0Z"/>
  <path class="cls-1" d="M11.86,10.52c0,.23,0,.46,0,.7,0,.11,0,.23,0,.34,0,.1,0,.2-.01.3v-.07c0,.05,0,.1-.03.15l.03-.06s-.01.03-.02.05c0,0,0,.01-.01.02-.01.02.04-.05.01-.02,0,0-.01.01-.02.02-.02.02.02-.01.02-.02,0,.01-.05.03-.06.03l.06-.03s-.08.02-.12.03h.07c-.11,0-.21,0-.32-.01h.07c-.06,0-.12-.01-.18-.03-.13-.03-.28.04-.31.17s.04.27.17.31c.34.09.87.13,1.06-.25.08-.15.09-.32.1-.49,0-.18,0-.36,0-.54,0-.2,0-.41,0-.61,0-.13-.11-.26-.25-.25s-.25.11-.25.25h0Z"/>
  <path class="cls-1" d="M8.22,13.94c.46,1.12,1.69,1.37,2.78,1.38,1.2,0,2.46-.1,3.51-.72.52-.3.96-.72,1.27-1.24.16-.28-.27-.53-.43-.25-.48.82-1.35,1.3-2.25,1.52-.55.13-1.11.18-1.67.19s-1.09.02-1.62-.13c-.46-.13-.92-.42-1.11-.88-.05-.13-.17-.21-.31-.17-.12.03-.23.18-.17.31h0Z"/>
  <path class="cls-1" d="M13.51,6c-.06.08,0,.07.15-.02.13,0,.11,0-.07.01-.13,0-.3.02-.43-.02-.21-.05-.26-.18-.16-.39.08-.03.17-.05.26-.06.11-.01.33-.09.17.05-.1.1-.36.08-.5.08-.11,0-.22-.01-.32-.04-.07-.19-.01-.31.19-.35.04-.02.34-.12.37-.1.02.02-.51.24-.55.25-.33.07-.93.08-1-.31-.04-.25.16-.39.36-.52.1-.06.34-.21.46-.18.56.17-.14.77-.39.83-.1.03-.21.03-.32.02-.15,0-.19-.07-.12-.22.02-.25.23-.38.47-.44.53-.14.25.56-.12.63-.16.03-.46-.06-.44-.29.03-.15.1-.2.22-.15,0,.18-.07.29-.21.33-.18.11-.47.11-.67.08-.14-.03-.48-.14-.33-.36.15-.07.26-.01.31.19-.03.11-.09.2-.17.27-.09.1-.21.18-.33.24-.09.04-.18.08-.27.1-.1.03-.21.04-.32.02l-.04.15c-.11.09-.23.11-.36.07-.22-.06-.47-.25-.37-.48.09-.21.62-.33.61.05-.03.17-.12.24-.25.19-.14.01-.2-.07-.19-.25.18-.12.19-.09.04.08-.07.07-.16.12-.25.15-.39.11-.7-.23-.81-.57-.1-.31-.53-.18-.48.13.08.49.7.91.58,1.42-.04.19-.42.81-.67.62-.07-.05.01-.33.04-.41.07-.2.2-.36.37-.48l-.3-.04c.22.26-.59.98-.85.3-.03-.07-.05-.15-.05-.23-.01-.12.03-.21.13-.26.04.1,0,.11-.1.04-.09-.11-.11-.23-.09-.36.03-.14.14-.32.26-.38.25-.13.42.11.27.33-.26.41-.83-.13-.37-.46.12-.08.27-.12.41-.15.07-.02.13-.03.2-.03-.09-.16-.09-.32.02-.45.19-.29.7-.49.93-.14.15.23-.09.37.26.35.13,0,.25-.04.39-.03.37.03.67.22.91.5v-.35c-.15.13-.07-.01.05-.08.09-.05.19-.07.3-.08.21-.01.41.06.56.2v-.35c.34-.3.64-.51,1.11-.48.18,0,.41.15.58.11.1-.12.22-.17.37-.16.1,0,.19.01.29.04.1.02.18.06.27.11.1.06.18.13.25.22.13-.16.29-.21.46-.13.12.04.23.1.32.19.06.35.11.4.13.18.12-.02.23-.02.34,0,.12.03.55.31.27.43l.24.06c-.28-.3.12.02.15.04.11.1.25.2.14.35-.18.23-.73.15-.96.09l.11.42c.11-.12.22-.25.37-.32.06-.04.13-.06.21-.05.21.07.26.15.13.23l.22.38c.09-.21.22-.2.38.04.02.2.2.3.38.22.09-.04.27.08.26.19l.49.07c.03-.4.53-.63.79-.27.11.15.11.36.18.53.13.35-.05.44-.38.34l.11.42c.13.03.17.1.11.21-.04.12-.12.2-.24.25-.17.09-.37.11-.55.14l.24.42c.09-.1.18-.19.29-.26.04-.03.09-.06.14-.07.08-.07.13-.05.16.06.13.06.23.16.34.24.06.14.1.17.13.07.04-.05.03-.1-.03-.15l-.28.37c.11.04.23.07.3.17.03.04.13.4-.05.31l.09.34c.1-.2.38-.25.45.02l.11-.28c-.09.04-.08-.43-.07-.45.03-.12.08-.24.15-.34.06-.09.16-.2.26-.25.2-.11.25-.12.16-.01-.11.17-.09.06.07-.32l-.25-.25c0,.19-.18.33-.36.23l.12.22.25-.26-.25-.25c0,.18-.04.4-.21.5-.08.07-.08.07-.02,0-.01-.12.03-.22.12-.31l.24-.18c-.27,0-.58,0-.81-.16-.11-.07-.2-.18-.22-.32-.06-.38.16-.08,0,.12-.2.27-.71.1-.96-.02-.26-.13-.44-.33-.56-.59v.25c.29-.45,1.17-1.18,1.52-.35l.09-.34c-.18.13-.4.21-.62.11-.1-.04-.24-.13-.26-.25-.07-.09-.03-.14.13-.14.18-.1.22-.1.1,0-.33.3-.9.09-.9-.37,0-.1.16-.47.18-.38.04.19-.3.22-.42.16-.1-.05-.18-.15-.22-.25-.07-.15-.15-.46-.08-.62.21-.5.54.11.59.31l.17-.31c-.39.08-.75-.1-.93-.44v.25c.17.01.22-.04.15-.17-.05-.11-.03-.2.07-.29l-.39-.05c.23.41-.59.3-.22-.04l-.39-.05c.2.46-.46.77-.8.53-.11-.04-.16-.12-.17-.25-.09,0-.18-.02-.27-.05-.09-.02-.18-.06-.26-.1-.14-.05-.21-.16-.23-.32l-.06-.24c-.03.14-.06.29-.17.39-.08.08-.17.11-.26.09-.12,0-.18-.08-.18-.26l-.22.17c-.16.03-.32,0-.46-.09-.13-.08-.33-.26-.24-.44l-.28.11c.05,0,.3.04.32.1.05.14-.21.21-.29.22-.12.02-.27.04-.38-.03-.13-.09-.17-.28,0-.35l-.37-.15c.14.6-.69.82-.87.23l-.06.24c.05-.03.09,0,.1.08l.11-.28c-.48.27-1.01.22-1.45-.1l.09.34c.18-.38.66-.38.78.04l.06-.24c-.18.18-.53.15-.63-.11l-.06.24c.06-.05.11-.1.17-.15l-.24.06.23.06-.18-.24c-.01.14-.03.32-.16.41-.05.1-.11.11-.2.03-.15,0-.17-.04-.08-.1l-.31-.17c.06.3-.25.48-.51.49-.1,0-.19-.03-.29-.03-.24,0-.25.04-.41.2-.28.3-.73.35-1.11.23l.17.17c.08-.21.17-.24.28-.1.09.04.16.12.18.22.05.12.04.25-.02.36-.1.17-.5.23-.4-.05l-.31.17c.17.04.33.09.48.19.08.04.14.09.21.16.14.1.16.22.07.37l-.38.22c.29.13.1.43-.13.51-.26.09-.53.01-.79-.05-.31-.08-.44.39-.13.48.28.08.6.15.81.36.18.18.27.54,0,.68l.3.04c-.12-.14-.15-.33-.1-.51.02-.09.07-.17.13-.24-.22-.05-.27-.15-.14-.28l-.47-.13c.03.4-.46.41-.75.42-.23,0-.36.35-.13.47.09.05.26.11.33.19.17.11.14.24-.09.38-.12,0-.23-.05-.32-.12-.28-.18-.55-.67-.19-.92l-.3-.04c-.19-.04-.18-.11.02-.22.08-.06.16-.08.26-.07.23,0,.37.11.47.31l.04-.3c-.16.12.34-.83.41-.36l.31-.31c-.1,0-.16-.07-.16-.17-.17-.03-.34-.06-.5-.1-.12-.04-.24-.07-.36-.14s-.23-.15-.29-.26c0-.22-.08-.23-.22-.03-.07.04-.15.08-.23.1l.28.11c-.09-.14.21-.35.31-.37.21-.06.59-.1.56.26l.25-.25.2.03-.34.09c.1.04.18.09.26.17.19.18.17.29-.05.32l-.34.09c.31.2.08.63-.26.46l-.13.47c.35-.04.05.52-.03.6-.15.16-.35.25-.58.26l.18.43c.2-.06.31,0,.33.16.02.08.02.15,0,.22-.03.19-.13.33-.28.43l.3.04c-.16.12-.3.13-.42.01l.05.39c.13-.06.2.02.2.22-.03.19-.14.29-.32.29l.22.12c-.09-.17-.1-.54.18-.54.22,0,0,.12-.11.19-.15.09-.85.53-.93.14-.07-.35.51-.62.71-.31.06.09.02.27.14.31-.01,0,.38-.29.44-.32.29-.15.03-.58-.25-.43-.37.19-.97.65-.64,1.13.3.43.8,0,.86-.37.07-.44-.24-.9-.69-.97-.5-.07-.96.33-1.05.81s.25.85.75.8c.45-.04,1.35-.43,1.48-.92.15-.55-.59-.69-.96-.52-.49.22-.62.8-.36,1.25.04.07.13.13.22.12.53-.03.94-.48.79-1.02-.12-.42-.69-.75-1.02-.34-.11.13-.09.29.05.39.25.17.57.24.83.05.24-.18.31-.52.1-.75-.43-.47-1.09.23-.6.61.08.06.2.11.3.04.43-.3.67-.84.47-1.35-.18-.45-.78-.69-1.12-.25-.12.15-.06.44.18.43.53-.03,1.02-.33,1.21-.84.17-.45-.02-1.08-.6-1.02-.22.02-.37.34-.13.47.91.45,1.62-.77.76-1.32-.12-.08-.27-.02-.34.09-.33.48.26,1.08.76.79.67-.39.24-1.19-.29-1.45-.13-.06-.26-.03-.34.09-.22.3,0,.78.38.79.41,0,.65-.48.45-.82-.21-.36-.74-.38-.99-.06-.28.35-.04.8.39.82.14,0,.24-.12.25-.25.12-1.44-2.52-.69-1.81.37.06.09.17.15.28.11.32-.12.7-.32.69-.72,0-.31-.32-.56-.62-.45-.32.11-.33.51-.22.78.15.36.52.57.88.69.33.11.81.18,1.03-.17.17-.26.06-.62-.26-.69-.7-.16-.66,1.04,0,1.16.2.04.34-.11.31-.31-.13-.8-1.09-.41-1.33.09-.27.54.27,1.16.79.75.09-.07.09-.21.04-.3-.22-.41-.67-.66-1.14-.53-.43.11-.82.56-.71,1.02.1.39.56.58.91.39.39-.21.38-.71.11-1.01-.07-.08-.22-.1-.3-.04-.81.56-.29,1.81.6,1.96.38.06.81-.15.87-.56.07-.45-.34-.75-.7-.92l-.13.47c.57-.02,1.29-.21,1.25-.92-.02-.25-.33-.34-.47-.13-.26.4-.15,1,.37,1.09.42.07.81-.3.66-.73-.17-.49-.66-.43-.92-.06-.29.41-.24.94.08,1.32.07.09.21.09.3.04.4-.21.51-.69.36-1.1-.2-.53-.78-.72-1.28-.86l-.13.48c.53.13,1.19.21,1.56-.29.26-.36.16-.89-.25-1.08-.17-.08-.38.01-.38.22,0,.61.81.72,1.03.16.29-.72-.6-1.22-1.16-1.36-.14-.04-.26.05-.31.17-.32.86,1.03,1.12,1.36.36s-.8-1.94-1.35-1.05c-.26.41,0,.72.42.77.49.06,1-.11,1.34-.47.21-.22.37-.68.06-.9-.29-.2-.64.07-.62.4.03.49.68.57,1.05.5.54-.1.9-.56.79-1.1-.02-.13-.19-.21-.31-.17-.53.16-.56.9-.05,1.11.65.27,1.07-.42,1.12-.97.01-.11-.08-.21-.18-.24-.32-.09-.39-.06-.64.16-.06.05-.09.17-.06.24.23.6,1,.8,1.47.33.06-.06.09-.16.06-.24-.23-.83-1.32-.95-1.69-.16-.06.13-.03.26.09.34.58.42,1.33.45,1.96.1.11-.06.13-.17.11-.28-.06-.46-.62-.58-.94-.3-.06.06-.09.16-.06.24.15.49.66.85,1.18.7s.78-.7.66-1.2c-.04-.17-.23-.21-.37-.15-.33.15-.43.54-.3.86.15.39.59.51.97.46.34-.05.8-.24.81-.65s-.4-.59-.74-.66c-.1-.02-.23.01-.28.11-.34.67.4,1.32,1.06,1.29.3-.01.59-.19.69-.48.09-.24.05-.64-.22-.75-.61-.25-.9.76-.49,1.12.57.5,1.28-.04,1.4-.66.02-.08,0-.19-.06-.24-.27-.22-.63-.15-.81.16-.21.39.1.76.43.95.39.22.95.33,1.3-.03.26-.28.19-.68-.16-.83-.32-.15-.68.01-.81.34-.15.38.06.79.41.97.83.43,1.83-.37,1.44-1.25-.07-.15-.29-.15-.39-.05-.38.36-.24,1.1.31,1.21.59.12.97-.6.7-1.07-.07-.13-.29-.18-.39-.05-.24.29-.38.7-.13,1.04.19.25.58.31.83.12.28-.21.24-.62-.02-.83-.35-.28-.75-.07-.99.23-.05.07-.04.18,0,.25.3.55.89.8,1.5.67.14-.03.2-.18.17-.31-.1-.48-.48-.94-1.02-.83-.59.12-.63.83-.48,1.31s.65.9,1.19.74c.44-.14.7-.75.35-1.12s-.83.04-.97.41c-.18.45-.04,1.01.38,1.27s.99.2,1.33-.15c.37-.39.16-1.05-.4-1.09-.62-.05-.91.69-.64,1.17.31.56,1.06.67,1.56.3.12-.09.15-.21.09-.34-.18-.41-.61-.63-1.05-.61-.5.02-.92.37-1.2.75-.14.19-.21.3-.12.52s.27.4.46.55c.4.3.98.5,1.47.34.4-.13.71-.56.56-.98-.13-.35-.58-.62-.89-.31s-.22.81.02,1.11c.32.39.86.44,1.33.46.11,0,.21-.08.24-.18.11-.33-.17-.66-.51-.65-.41.01-.6.47-.59.82s.26.65.63.51c.41-.15.61-.61.6-1.01,0-.12-.11-.27-.25-.25-.43.06-.7.32-.75.76,0,.08.05.18.12.22.49.28,1.14-.09,1.11-.66,0-.12-.11-.26-.25-.25-.64.07-1.02.88-.41,1.28.52.34,1.33-.18.89-.76-.48-.63-1.3,0-1.53.53s-.08,1.61.72,1.26c.1-.04.14-.19.11-.28-.19-.66-1.06-.78-1.37-.13-.06.12-.04.27.09.34.37.19.82-.03.9-.45.09-.48-.36-.81-.76-.94-.22-.07-.38.18-.28.37.14.27.41.54.73.38.28-.13.28-.46.13-.69-.17-.28-.49-.57-.84-.54-.29.02-.52.25-.5.54.07.73,1.02.34,1.06-.23.02-.29-.19-.51-.48-.51-.4,0-.81.28-1.06.56-.17.2,0,.46.24.42.56-.09,1.23-.37,1.17-1.05-.04-.47-.63-.81-.98-.39-.12.14-.08.36.11.42.36.11.83.06,1.08-.26.21-.26.09-.61-.18-.77-.23-.13-.74-.19-.88.09-.12.24.07.55.33.58.31.03.52-.26.57-.53.07-.34-.08-.71-.35-.94-.63-.52-1.47.02-1.53.75-.02.28.45.35.49.07.09-.58-.46-.99-.99-.75l.38.22c-.06-.72-.97-.98-1.32-.29-.08.16.01.39.22.38.49-.03.76-.63.4-1-.46-.48-1.11-.1-1.46.29-.12.14-.08.37.11.42.72.2,2.25-.19,1.43-1.14-.23-.27-.71-.64-1.08-.4s-.13.69.09.93c.06.06.16.1.24.06.69-.27.48-1.11-.12-1.34-.32-.13-.74-.14-1.02.07-.23.17-.36.52-.22.79.32.62,1.19.11,1.1-.48-.1-.65-1.1-1.13-1.63-.69-.48.39-.17,1.27.48,1.01.26-.1.35-.39.25-.64-.13-.35-.53-.59-.88-.69-.55-.15-1.6.14-1.27.92.23.55,1.16.36,1.01-.27-.21-.89-1.64-.72-2.2-.36-.29.19-.62.57-.41.93.16.28.51.31.74.11.1-.09.09-.27,0-.35-.5-.46-1.35-.48-1.8.07-.19.23-.24.56.01.76.3.23.63.04.88-.17.11-.09.08-.26,0-.35-.32-.38-.77-.62-1.26-.65-.4-.03-1.03.09-1.1.58-.05.37.32.69.66.5s.42-.67.29-1.02c-.38-.96-1.73-.59-1.99.27-.13.43.12.98.62.96.36,0,.63-.4.48-.74-.19-.42-.77-.29-1.11-.18-.39.14-.78.44-.76.9.05.96,1.41,1.04,1.61.11.08-.36-.1-.82-.5-.88-.44-.06-.86.31-1.01.69s-.06.91.35,1.11c.34.17.79-.03.87-.41.09-.48-.45-.73-.84-.54-.45.23-.44.87-.23,1.25.29.52.86.62,1.32.26.39-.3.64-.83.29-1.24-.07-.08-.22-.1-.3-.04-.42.3-.71.77-.66,1.3.04.44.39.68.82.52s.83-.69.87-1.16c.04-.61-.52-.94-.61-1.5l-.48.13c.15.46.5.88,1.01.95.44.06.9-.18,1.08-.58.16-.36.03-.82-.42-.83-.43,0-.72.44-.66.83.14,1.01,1.78.58,1.37-.4s-2.12-.22-1.45.75c.26.38.81.61,1.24.42.39-.17.59-.65.33-1.02-.24-.34-.76-.31-.95.06-.22.43.2.77.6.79.49.02,1-.23,1.31-.6.26-.31.39-.86,0-1.14-.31-.23-.91-.13-1.12.2-.25.42.15.85.52.99.48.18,1.16.1,1.54-.26.3-.29.33-.78-.07-1-.89-.49-1.38.95-.49,1.31.78.32,1.94-.79,1.17-1.45-.7-.6-2.28.65-1.44,1.34.73.6,2.06-.21,1.89-1.13-.21-1.15-2.05-.22-2.09.61-.06,1.15,1.98,1.05,2.5.43.26-.31.14-.76-.28-.81s-1.02.2-1.18.61c-.42,1.08,1.76,1.17,1.97.36.22-.86-1.74-.87-1.65.11.08.91,2.01,1.02,1.78.15-.1-.4-.62-.63-.97-.39-.29.21-.36.69-.04.91s.72.03.81-.31c.08-.31-.4-.44-.48-.13h0Z"/>
  <path class="cls-1" d="M4.55,8.21c.32,0,.32-.5,0-.5s-.32.5,0,.5h0Z"/>
  <path class="cls-1" d="M4.22,9.18c.32,0,.32-.5,0-.5s-.32.5,0,.5h0Z"/>
  <path class="cls-1" d="M4.94,10.08c-.05,0-.06,0-.09-.04-.04-.03-.06-.08-.07-.11-.02-.08-.01-.15.05-.23.18-.21.5-.2.75-.08.04.02.08.04.12.06,0,0,.06.04.06.04,0,0,0-.02,0-.01l.02-.06c.03-.06.03-.07,0-.05,0,0-.06.04-.08.06-.15.09-.3.18-.46.23-.07.02-.11.03-.18.03-.03,0-.06,0-.08-.03-.07-.11-.07-.25-.04-.36.06-.23.31-.39.54-.31,0,0,.04.02.05.03.08.05,0,.02.02.01,0,0,.01-.05.01-.05,0,0,.04-.02,0,.01-.03.02-.06.05-.08.07-.11.08-.24.13-.36.14-.25.02-.5-.11-.58-.34-.08-.21.03-.46.24-.52.06-.02.09-.02.14-.02.05,0,.09.03.15.06.09.06.15.16.17.27,0,.03,0,.11,0,.14-.01.07-.03.13-.06.19-.07.12-.16.2-.28.27-.25.13-.6.11-.84-.03-.11-.06-.19-.15-.23-.27s-.01-.28.04-.36.14-.16.22-.19c0,0,.06-.01.03,0-.02,0,.02,0,.02,0,.04,0,.03,0,0,0,.01,0,.03,0,.04,0,.02,0,.06.05.09.1.01.02.02.05.03.07,0,.01,0,.03,0,.04,0,.04,0-.03,0,.01,0,.03,0,.06,0,.09,0,0,0-.03,0,0,0,.02,0,.04-.01.07-.02.07-.02.08-.06.14,0,.01-.02.03-.03.04,0,0,.02-.02,0,0-.01.01-.02.03-.04.04,0,0-.05.04-.02.02-.06.04-.06.04-.13.05.04,0-.05,0-.05,0,0,0,.03.03,0,0-.01-.02,0-.01,0,0,0-.02-.01-.04-.01-.05,0,.02,0-.05,0-.06,0-.07,0-.14.01-.21.03-.23.18-.59.44-.46.24.11.33.41.27.63-.03.1-.1.19-.19.24-.1.06-.2.09-.3.05-.04-.01-.06-.04-.08-.07-.02-.02,0-.01,0,0,.01.03-.01,0,0-.02,0,0,0,.01,0,.01,0,0,.03-.02.02-.02.12-.06.23-.12.36-.12.25,0,.32.29.29.53-.03.27-.23.53-.51.55-.01,0-.08,0-.08,0h.02s.06.08.06.13c0,0,0,.05,0,0,0-.03,0,0,0,0,0,.02,0-.02.01-.01,0,0-.02.02-.02.02.01,0,.04,0,0,0,.04,0,.03,0,.01,0,.02,0,.03,0,.05.01-.03,0,.04.02.05.03,0,0,.02.01.04.04-.02-.03.03.07.01.03.03.09,0,.21-.08.29-.1.11-.24.16-.38.19-.06.01-.12.03-.18.03-.01,0-.09,0-.05,0-.03,0-.01,0-.01,0h-.02s.03.01.04.03c.02.05-.02.05.03.03.07-.02.14-.03.21-.04.06,0,.14-.01.2,0,.03,0,.07.01.09.03.02.01.03.02.04.03.05.07.05.16,0,.25-.02.04-.06.08-.1.1-.02.01-.06.04-.08.04-.01,0-.04,0-.05.01-.03.02,0,0,.03.01,0,0,.01.01.02.02h0s0,.02,0,0c-.01,0,0-.03,0,0,.02-.04.05-.07.09-.1.12-.09.28-.16.43-.17.12,0,.19.04.23.13-.02-.04.02.06,0,.03-.01-.03,0,.04,0,.01,0-.02,0,.01,0,.02,0-.02,0-.01,0,.01,0,0,.02-.03,0,0-.03.03.03-.02,0,0-.03.02.05-.02-.01,0-.04.02.02,0-.02,0-.03,0-.02,0,0,0-.02,0-.03,0-.04-.01.05.01-.04-.02-.01,0,.02,0,0,0,0,0,.02.03,0,0,0,0,0,.03,0-.04,0-.02,0-.03.01-.06.02-.08.02-.05.07-.1.11-.13.05-.03.09-.05.13-.05.02,0,.04,0,.04,0-.02,0,.03.02.01,0-.01,0,.03.03.03.03-.01-.01,0,.02,0,.01.01.03,0,0,0,0,0,.01-.01.04,0,0,.01-.03,0,.01-.01.02-.03.02-.07.04-.1.06-.14.07-.31.11-.47.12-.07,0-.16,0-.2,0-.09-.01-.01,0-.02,0h0s.03.04.03.07c0,0,.02-.09.02-.09.03-.11.1-.23.2-.31.03-.02.07-.05.11-.06.04-.01.09-.01.12,0,.07.03.13.1.15.18s.02.17-.04.23c-.07.09-.17.13-.27.14,0,0-.06,0-.08,0,0,0-.05,0-.02,0-.01,0-.03,0-.04,0,0,0-.04-.01-.04-.01,0,0,0,0,0,0,0,0,.08.18.01.13,0,0,0,0,.02-.01.03-.01.09-.07.14-.09,0,0,.08-.02.06-.02.04,0,0,.03,0-.01,0,0,.02.04,0,.01,0-.03,0,.02,0,.03,0,.03,0,0,0,0,0,.04,0,.03,0,.01-.01.05-.02.08-.08.13-.11.1-.26.15-.4.19-.17.05-.35.1-.52.11-.14,0-.29,0-.38-.08-.05-.04-.07-.08-.08-.12,0-.03,0-.05.02-.09.01-.02.05-.04.07-.05.01,0,.03,0,.04-.01-.03,0,.01,0,.02,0-.01,0,.01,0,.03.01.02.01.02.01.03.02-.01-.02.04.06.02.03,0,.02.01.04.02.05,0,0,0-.03,0,0,0,0,0,.06,0,.03,0-.02-.02.05,0,0,0,.01-.04.06-.01.03,0,.01-.02.02-.03.03,0,0,.03-.02,0,0-.01,0-.02.01-.03.02-.04.02.03,0,0,0-.01,0-.02,0-.03.01-.04.01,0,0-.02,0-.03,0-.06,0-.09,0,.04,0-.03,0-.04-.01-.03,0,0,0,0,0-.01,0-.03-.01-.04-.02,0,0-.03-.03-.01,0-.01-.01-.03-.03-.04-.04,0,0-.02-.04-.03-.05,0,0-.01-.03-.02-.06-.02-.06-.02-.11-.01-.19s.05-.21.14-.28c.03-.02,0,0,.04-.01-.05,0,.05,0,.03,0-.03,0,.07.02.03,0,.02,0,.03.02.05.03,0,0,.03.02.01,0,.04.04.06.05.06.1,0,.01,0,.05-.01.08-.04.1-.14.16-.22.15l.13.03h-.02s.06.05.09.08v-.02s.01.08.03.13c0,.04-.02.07-.05.09.01-.01.03-.02.05-.03.04-.02.04-.02.07-.03.07-.02.08-.02.15-.02.09,0,.18.05.26.13l.05-.39c-.15.09-.32.14-.5.12-.04,0-.07,0-.11-.02,0,0-.05-.01-.04-.01l-.02-.02.03.05c.03.1-.06.14-.02.13.04,0,.08-.04.12-.05.08-.02.18-.03.26-.02-.02,0,.03,0,.02,0,.1,0,0,0,.02,0-.01,0-.15-.09-.04-.12.01,0-.01.02-.02.03-.13.13-.25.24-.42.32-.15.07-.32.11-.48.11-.08,0-.15,0-.22-.03-.06-.02-.08-.05-.09-.09,0,0,0-.05,0-.02,0-.02,0-.04,0-.06,0,.03,0-.02,0-.02,0-.02.01-.04.02-.06.02-.08.07-.15.11-.22.08-.12.2-.28.34-.32.05-.02.08,0,.13,0-.01,0,.01.01.01.01-.02-.01,0,0,0,0-.02-.02,0-.01,0,0,0-.05,0,.02,0,.03,0-.04,0,.04-.02.05.02-.04-.04.05-.01.02,0,0-.03.02,0,0-.04.02-.02.01-.01.01-.06.02-.04.02-.1.01.03,0-.06-.02-.07-.02.03.01-.06-.04-.04-.02-.06-.05-.09-.1-.11-.18-.03-.15.02-.31.12-.43.05-.07.11-.12.17-.18.06-.05.11-.07.16-.1.02-.01,0,.01-.05-.01-.03-.02-.03-.05-.04-.08,0,.02,0,.02,0,.02h0s0,0-.01.02c-.03.03-.07.07-.11.08-.1.04-.22.03-.31-.02-.05-.03-.07-.06-.1-.11,0,0-.02-.04,0-.01,0-.02-.01-.03-.02-.05-.01-.05,0-.03,0-.08,0-.11.05-.24.15-.29-.02,0,.07-.02.03-.01.02,0,.03,0,.05,0,.03,0,.03,0,.02,0-.02,0-.01,0,.01,0,.05.03.02,0,0,0,.03-.01,0,.03,0,0,0,.02.01.01,0,.02,0,0,.02-.05,0-.01-.03.05-.05.09-.11.14-.05.03-.14.05-.2.05.01,0-.06-.01-.04-.02.04,0,0,.03,0,0,0,.02,0,.02,0,0,0-.02,0-.01,0,.01,0-.01,0-.03,0-.05,0,.03,0,.03,0,.01,0-.02,0-.01,0,0-.02,0,.06-.04,0,0-.01,0-.06.03-.02.02.13-.02.21-.19.17-.31-.04-.14-.17-.2-.31-.17-.32.05-.43.47-.28.73.19.31.64.31.92.14.3-.18.5-.6.23-.89-.21-.23-.59-.22-.83-.04-.51.39-.38,1.24.24,1.43.29.09.64.01.84-.21.12-.13.19-.31.15-.49-.05-.19-.23-.31-.42-.31-.33.01-.63.34-.78.6-.17.3-.21.69-.02.98.17.28.54.43.85.3.29-.11.46-.46.36-.76-.12-.36-.54-.45-.86-.31-.29.13-.52.44-.64.73-.13.32-.12.69.2.89.28.18.69.14.99.05s.6-.27.8-.52c.12-.15.2-.35.09-.54-.1-.16-.3-.21-.47-.22-.31-.02-.91.13-.81.56.08.38.59.41.9.36.17-.03.33-.09.48-.18s.16-.27.05-.39c-.17-.19-.44-.3-.69-.28s-.64.16-.63.48c0,.22.22.3.41.27.14-.02.27-.1.37-.19.22-.2.3-.52.17-.79-.11-.23-.36-.38-.61-.38-.32,0-.54.25-.64.53-.18.5.1,1.12.67,1.15.24,0,.49-.1.62-.31.14-.24.09-.55-.1-.75-.2-.21-.53-.25-.78-.08s-.36.46-.25.73c.24.65,1.05.55,1.57.38.28-.09.59-.22.75-.48.14-.23.12-.55-.08-.73-.27-.24-.63-.1-.87.1-.12.1-.2.25-.17.41.04.17.17.28.34.34.5.17,1.13-.22,1.11-.78-.01-.25-.14-.5-.35-.64-.23-.15-.54-.14-.77,0s-.38.37-.46.63c-.05.17-.06.35.06.49.1.12.24.16.39.17.49.04,1.53-.24,1.2-.92-.13-.27-.44-.39-.73-.3s-.5.32-.56.6.09.59.39.66c.24.06.51-.03.64-.25.14-.25.04-.57-.17-.75-.23-.2-.55-.22-.83-.12s-.59.28-.67.58.15.64.48.6c.27-.03.54-.24.65-.49.12-.27.07-.61-.15-.81s-.56-.18-.84-.14c-.31.05-.63.3-.51.65.1.31.45.32.72.28s.56-.16.74-.38.27-.55.15-.83c-.11-.24-.37-.4-.63-.38-.3.03-.59.34-.42.65.15.29.57.22.82.11.54-.23.78-.91.59-1.45-.11-.3-.34-.51-.67-.54-.26-.02-.58.09-.78.27-.26.24-.2.62.08.82.21.16.5.18.75.08.56-.22.76-.87.48-1.4-.13-.24-.37-.44-.65-.49-.32-.05-.61.13-.77.39-.26.41-.35,1.41.36,1.41.54,0,.89-.59.8-1.08-.05-.27-.24-.53-.52-.59-.26-.05-.53.07-.71.27-.4.45-.28,1.17.23,1.48.49.29,1.2.26,1.62-.15s.46-1.06.03-1.44c-.21-.19-.5-.27-.78-.19s-.49.29-.59.55c-.21.53.17,1.12.69,1.27.27.08.56.04.81-.08s.57-.37.47-.69c-.08-.29-.41-.44-.7-.43-.3.01-.57.16-.74.41-.32.47-.17,1.34.52,1.31.3-.01.59-.17.84-.32.13-.08.26-.16.31-.31.05-.16-.02-.33-.15-.44-.22-.2-.59-.31-.88-.31-.27,0-.54.1-.73.3s-.27.47-.19.73c.07.24.26.45.51.5.13.02.27-.04.31-.17.03-.12-.04-.28-.17-.31h0Z"/>
  <path class="cls-1" d="M3.15,9c-.27,0-.28-.37-.15-.53s.38-.18.57-.17c.12,0,.23.04.35.07.18.06.5.23.51.47s-.41.52-.56.61c-.06.04-.12.07-.18.09-.09.08-.17.07-.26-.03-.11-.12-.22-.1-.32.04-.14.17-.26.15-.36-.07-.3-.49.1-1.11.43-1.47.18-.2.69-.54.81-.1.11.4-.39.47-.63.31-.19-.13-.41.08-.37.28.14.59.7,1.01,1.31.97.35-.02.56-.26.87-.38l.17-.07-.1.28c-.16.04-.28-.34-.29-.44-.01-.35.26-.68.46-.93l-.43-.18c-.17.14-.28.13-.3,0-.04-.06-.04-.13-.02-.2,0-.14.05-.39.17-.49l.08-.13c.18.07.2.14.06.21-.1.12-.3.15-.44.14-.24-.01-.49-.16-.63-.35-.17-.22-.26-1.03.25-.8.18.04.2.08.04.11-.12.09-.21.05-.28-.11-.07-.1-.11-.27-.08-.39.04-.15.17-.3.32-.35.13-.08.25-.03.36.14l-.02-.15c.08-.1.08-.29.17-.41.1-.14.21-.26.38-.31.32-.1.64.08.7.4l.37-.28-.02-.08-.31.17c.24.09,2.06.58,1.98.88l.46-.06c-.23-.4-.08-.89.32-1.11l-.38-.22c-.26-.06-.33-.2-.21-.42.05-.29.13-.32.24-.07.08.34-.36.39-.54.24-.52-.4.34-1.04.75-.46l.09-.34c-.39.27-.87-.06-.65-.53-.1.21-.12.4-.33.53-.2.13-.44.12-.65.02-.11-.04-.2-.12-.27-.23-.03-.06-.04-.03-.03.07-.09.1-.12.37-.22.51s-.23.26-.38.36c-.3.22-.17.11.07-.01l-.37-.15c.05.15.35.94-.14.86-.25-.04-.4.22-.24.42.57.72,1.74.61,2.24,1.36.14.22.44.12.47-.13.03-.28.1-.55.25-.79.06-.1.13-.2.21-.28.05-.06.11-.12.18-.17.13-.07.13-.17,0-.3h.43c-.05-.09-.3-.59-.18-.67-.02.15.04.21.17.17-.05-.1-.08-.2-.08-.31,0-.51.71-.7.78-.14l.31-.31c-.12-.02-.21-.08-.29-.17-.17-.1-.14-.22.11-.34l.22-.12c.13-.27.23-.3.31-.09.09.09.13.19.11.32l.18-.24c.15-.04.61-.02.46.25-.11.21-.29-.13-.04-.14s.42.51.44.68l.37-.28c-.24-.12-.29-.44-.04-.59.2-.09.38-.06.53.1.14.24.18.3.1.17-.08-.11-.04-.22.11-.33.1-.06.21-.07.32-.04.07,0,.6.25.53.34l.22-.12h-.06c.07.04.14.08.22.12l.34-.02c.09.06.17.13.24.22.11.11.2.24.28.37.14.25.22.52.26.8l.31-.31c-.27-.08.19-.31.33-.31.1,0,.67.16.56.34l.34-.09c-.05-.3.01-.3.2-.01.05.1.09.21.12.32.09.25.52.23.49-.07-.02-.18-.03-.2-.08-.37-.1-.35.11.09.15.19l.31-.31.23.42-.24.06c.16.06.35.15.47.28l.14.24c-.05.37-.17.46-.36.26l.04.3c.12-.21.29-.24.51-.22.16.02.67.16.69.33l-.25.25c.22,0,.57-.05.62.25l-.24.32c.39,0,.74.27.7.69,0,.05-.17.63-.29.47l.2-.2c.26-.02.37.1.35.36l-.18.24c.27-.06.58.27.35.53-.08.09-.51.21-.49-.03l-.18.24c.24-.03.36.08.34.34-.05.15-.15.26-.28.33-.28.16-.43.43-.76.48l.24.42c.62-.19.76-.09.43.3-.32.03-.32.47,0,.5-.03.15-.11.21-.23.18-.1.03-.15,0-.17-.12l-.28-.11c.11.1.1.19-.01.26.1.25.04.29-.17.1l-.37.15c.26.12.41.33.35.63l.42-.11c0,.12-.07.15-.19.1l.24.18c-.1-.27,0-.5.25-.61l-.3-.04c.12.13.15.27.07.41l.46-.06c-.16-.36-.16-.71-.03-1.08l-.42.11.08.12.31-.31c-.44-.12-.38-.75.11-.68l-.15-.37c-.09-.22-.06-.36.09-.43.08-.05.16-.09.24-.11l-.32-.24c-.01.31-.24.6-.56.65-.08.01-.45-.03-.44-.17.01-.19.66-.06.54.34l.24-.18c-.6.02-.22-.89.19-.4l.05-.39c-.24.12-.49-.09-.57-.3-.06-.16.14-.52.2-.46h-.29c-.09-.12-.11-.24-.05-.36.05-.17.23-.36.41-.4l.13-.04.21.24c-.05.07-.4,0-.48-.02-.14-.03-.27-.09-.38-.16-.25-.16-.13-.19-.25-.54l.17-.31c-.78.27-1.39-.61-.8-1.22l-.43-.18c.04.38-.37.59-.69.41-.29-.17-.36-.5-.35-.81l-.32.24c.37.12.58.54.41.9l.22-.12.07.03-.31.31c.35.12.55.41.56.77l.43-.18c-.06-.07-.12-.14-.19-.21v.35l.18.06.11-.28c-.44.23-.98.16-1.31-.22-.09-.09-.16-.19-.2-.31l.11-.29c.08.02-.4.28-.4.28-.69.18-1.02-.58-.97-1.13l-.32.24-.16.28-.17-.02c-.14,0-.28-.15-.36-.24-.17-.2-.22-.44-.16-.69l-.31.17.11.29.17-.17c-.58.19-1.2-.02-1.52-.54l-.04.3c.08-.08.77-.47.72-.01-.01.09-.31.26-.39.29-.22.1-.51.14-.69-.07-.1-.12-.22-.43.06-.47.23-.03.4.39.36.57-.05.23-.32.39-.55.38-.46-.02-.63-.54-.46-.91l-.22.12c.15-.02.33.13.14.23-.13.07-.35-.09-.43-.17-.21-.22-.18-.52,0-.75l-.46-.19c-.28.91-1.42.93-1.8.08v.25l.09-.15-.28.11c.44.13.44.67.14.94-.22.2-1.12.46-1.16-.03-.02-.29.44-.26.57-.06.16.24.01.49-.21.6-.2.1-1.49.24-1.23-.32l-.22.12c.58-.06.89.59.46,1s-1.01.07-1.22-.4l-.22.38c.22,0,.9-.04.85.34.05.1.02.15-.1.14-.08.04-.16.04-.24,0-.18-.04-.51-.2-.4-.42l-.28.11c.46.07.7.6.33.94-.34.32-.82.14-1.05-.21l-.34.34c.34.18.85.54.9.96.11.86-1.03.27-1.31.1l.05.39c.57-.57,1.24.14,1.53.63l.09-.34c-.34.23-.83.59-1.27.47-.16-.04-.39-.22-.42-.39-.08-.41.36-.42.6-.35.64.19,1.31.95,1.41,1.6l.17-.31c-.69.19-1.45-.16-1.7-.85l-.06.24c.14-.15.32-.02.45.12.17.2.17.43.05.65-.28.47-.86.31-1.05-.13l-.28.37c.33.07.81.2.88.6.14.83-1.05.13-.63-.23l-.24.06c.41.15.67.46.79.88l.06-.24c-.25.26-.46.14-.61-.16v.25l.21-.33-.22.12c.48-.03.85.19,1.06.62l.09-.34c-.19.14-.39.22-.63.16-.3-.07-.51-.46-.06-.49.38-.03.76.25.94.56.12.21-.03.39-.29.33l-.15-.03c-.07-.22.05-.29.34-.2.08.1.11.21.08.33-.09.14-.21.19-.36.14-.09.15.01.3-.16.46l.3-.04c-.17-.07-.22-.25-.1-.39l-.22.12c.25.03.32.27.25.46l.17-.17c-.18.06-.34,0-.45-.15l.06.24c.07-.46.59-.47.67-.02l.06-.24c-.25.29-1.03.67-1.09-.03l-.12.22c.41-.2.75.09.74.51l.18-.24c-.34.12-.64.02-.86-.26v.35c.5-.5,1.38-.38,1.73.22l.09-.34c-.11-.18-.26-.28-.45-.32-.19,0-.27-.08-.24-.26l-.47.13c.16.34-.29.59-.56.47s-.39-.4-.43-.68l-.24.32c-.12.1-.26.14-.42.1-.21-.09-.31-.25-.29-.47l-.18.24c.27-.05.47.08.58.32l.04-.3c-.07.1-.16.16-.28.19-.22.05-.35-.03-.39-.26l.33-.23c.15.05.28.13.39.25.29.49-.21.5-.42.48s-.6-.12-.62-.4l-.12.22c.63-.42,1.34.04,1.25.79l.12-.22c-.24.14-.49.11-.69-.09l-.11.42c.52-.13,1.08.23,1.15.77l.12-.22c-.6.26-1.3.03-1.66-.51l-.09.34c.2-.14.41-.23.66-.22l.21.03c.28.05.35.24.21.57-.3.19-.91-.03-.96-.36l-.11.28c.66-.5,1.65-.42,2.17.26l.15-.37c-.35.14-1.3.46-1.24-.26l-.12.22c.56-.29,1.25-.1,1.59.43l.09-.34c-.49.31-1.14.57-1.59.06l-.05.39c.37-.26.83-.27,1.19.02l.05-.39c-.28.16-.57.26-.89.29-.21.02-1.19.08-.83-.45.11-.16.5-.19.67-.17.32.02.61.17.8.43l.04-.3-.2.13.22.12c-.07-.13.24-.41.36-.42l.45.17c-.06.06-.13.1-.21.14-.13.07-.28.14-.42.18l-.23.04c-.3.03-.38-.1-.23-.39.21.24.57-.11.35-.35-.42-.47-1.2-.01-1.07.58.2.87,1.28.69,1.85.37.26-.15.53-.38.52-.7s-.31-.58-.62-.62c-.62-.08-1.53.59-1.18,1.25.04.07.13.13.22.12.23-.02.4-.09.55-.27.06-.08.11-.21.04-.3-.54-.74-2.07-1.06-2.53-.02-.25.56.29.86.76.94.64.11,1.28-.02,1.85-.33.13-.07.17-.29.05-.39-.52-.43-1.23-.49-1.79-.1-.14.1-.16.27-.05.39.61.68,1.52.46,2.2.02.11-.07.16-.22.09-.34-.24-.37-.58-.64-1.01-.76-.36-.1-.99-.12-1.28.17-.27.27-.02.74.23.94.46.37,1.05.2,1.55,0,.13-.05.26-.23.15-.37-.66-.88-1.95-1.12-2.85-.43-.1.07-.14.16-.11.28.15.84,1.68,1.09,2.09.33.24-.45-.12-.91-.52-1.09-.48-.22-1.03-.13-1.45.17-.11.07-.17.22-.09.34.52.79,1.48,1.06,2.34.69.07-.03.13-.14.12-.22-.11-.87-.92-1.46-1.78-1.25-.18.04-.24.29-.11.42.27.26.65.39,1.02.29.41-.11.48-.42.39-.82-.21-.9-1.24-1.25-1.99-.75-.07.05-.13.13-.12.22.06.72.93,1.03,1.56.86.82-.22.67-1.15.06-1.53s-1.42-.1-1.29.7,1.08.77,1.51.28c.08-.09.09-.2.04-.3-.22-.45-.67-.64-1.15-.55-.11.02-.18.14-.18.24,0,.68.65,1.19,1.3.89.23-.1.46-.31.45-.57-.01-.3-.27-.46-.55-.45-.18,0-.27.16-.24.32.09.6.62,1.24,1.3,1.07.55-.14.84-.74.6-1.25-.1-.22-.49-.12-.47.13.05.52.43,1.15,1.06.92.39-.14.54-.68.22-.98-.37-.35-.85.18-.84.57.02.52.6.71,1.01.5.12-.06.15-.23.09-.34-.52-.89-1.79-1.05-2.52-.33-.1.1-.08.25,0,.35.32.41.85.56,1.34.39.11-.04.18-.13.18-.24.03-.83-.76-1.3-1.49-.94-.07.04-.13.13-.12.22.04.48.39.88.89.91.38.02,1.07-.26,1.12-.7s-.46-.79-.84-.79-.89.41-.81.84c.07.38.69.58,1.01.42.36-.18.24-.71.03-.97s-.66-.46-.87-.1-.02.84.34,1c.11.05.21.04.3-.04.36-.32.41-.93.04-1.27s-1.03-.16-.9.41c.1.48.72.69,1.14.49.44-.22.53-.81.24-1.18-.32-.41-.95-.34-1.23.09-.33.5.11.9.63.91s1.04-.36.81-.91-.77-.95-1.35-.98c-.52-.03-1.15.39-.86.98.31.62,1.19.66,1.69.29.11-.09.15-.21.09-.34-.25-.5-.89-1.01-1.5-.86-.19.05-.36.26-.42.45-.08.24.09.47.28.63s.51.3.75.23c.18-.06.42-.32.44-.52.05-.59-.68-1.12-1.15-1.3-.09-.03-.18,0-.24.06-.7.61.35,1.93,1.12,1.41.34-.23.45-.71.31-1.08-.19-.49-.71-.72-1.19-.82-.23-.05-.37.17-.28.37.39.87,1.66.89,2.01-.03.29-.77-.67-1.96-1.36-1.21-.06.06-.1.16-.06.24.35.94,1.35,1.47,2.32,1.2.14-.04.2-.17.17-.31-.15-.92-1.86-2.81-2.82-1.72-.37.42-.15,1.02.27,1.31.66.45,1.42.02,1.99-.36.11-.07.16-.22.09-.34-.46-.79-1.5-1.56-2.32-.73-.12.12-.09.31.05.39.58.36,1.59.75,2-.08.36-.74-.51-1.55-1.09-1.85-.21-.11-.49.12-.34.34.44.66,1.37.87,1.92.21.52-.62.15-1.56-.63-1.68-.1-.02-.23,0-.28.11-.36.78.86,1.61,1.49,1.08.27-.23.26-.66.08-.95-.27-.41-.8-.44-1.24-.43-.2,0-.29.21-.22.38.25.55.85.95,1.47.8.56-.14.99-.71.89-1.29-.09-.48-.66-1.02-1.19-.86s-.2.95.14,1.15c.47.28,1.37.2,1.79-.14.39-.31.43-.94.08-1.31s-1.02-.32-1.34.08c-.37.46.12.97.57,1.1.62.18,1.41-.12,1.67-.73.24-.56-.06-1.21-.64-1.38-.1-.03-.23.02-.28.11-.36.64.54,1.22,1.11,1.28.71.07,1.32-.42,1.52-1.08.09-.29-.3-.41-.46-.19-.35.48-.27,1.2.27,1.52.37.22,1.17.25,1.23-.31.05-.42-.52-1.08-.95-.7-.38.34-.15,1.13.15,1.43.96.95,2.49-.65,1.32-1.49-.44-.31-1-.19-1.09.38-.08.53.3,1.01.83,1.06s1.57-.44,1.38-1.1c-.21-.73-1.22-.49-1.61-.11-.08.07-.1.21-.04.3.37.61,1.07.96,1.79.85.32-.05.54-.16.52-.52-.01-.31-.23-.53-.51-.63-.12-.04-.28.05-.31.17-.18.77.39,1.65,1.24,1.57.32-.03.65-.22.7-.56.05-.32-.15-.64-.47-.69-.17-.03-.3.07-.32.24-.05.59.19,1.22.73,1.52.47.26,1.12.15,1.47-.26.32-.38.11-.9-.43-.84s-.61.72-.38,1.11c.28.48.92.95,1.49.71.47-.19.62-.85.14-1.14-.45-.27-.88.18-.79.64.13.62.84.59,1.28.36.1-.05.13-.18.11-.28-.08-.43-.58-.74-.96-.44-.31.24-.31.78.07.95.35.16.82-.12.76-.52-.06-.43-.6-.55-.89-.27-.1.1-.09.25,0,.35.06.07.12.14.19.21.15.16.43.03.43-.18-.01-.6-.36-1.06-.93-1.25-.2-.07-.33.14-.31.31.03.23.19.33.41.34.08,0,.18-.05.22-.12.3-.66,0-1.41-.71-1.64-.16-.05-.31.09-.32.24-.02.6.31,1.3.97,1.39.57.07,1.13-.4,1.07-.98-.02-.2-.26-.34-.43-.18-.92.95.01,2.49,1.29,2.05.12-.04.22-.17.17-.31-.13-.37-.59-.48-.89-.21-.4.36-.07.95.27,1.21.4.32,1.08.51,1.57.28.41-.19.42-.74.08-1.01-.82-.66-2.26.67-1.45,1.48.29.3.81.26,1.06-.07s-.05-.72-.44-.76c-.58-.05-.83.55-.68,1.04.18.56.79.89,1.33.63.16-.08.15-.28.05-.39-.35-.41-1.08-.38-1.33.13-.27.54.24,1.14.79,1.12.11,0,.21-.08.24-.18.15-.51-.33-1.04-.82-1.15-.45-.1-.84.26-.73.72s.64.71,1.09.61c.54-.12.9-.6.92-1.14,0-.15-.17-.3-.32-.24-.49.19-1.06.61-.81,1.22.19.44.8.46,1.04.06.07-.13.01-.34-.15-.37-1.1-.16-1.47,1.35-.37,1.65.17.05.38-.12.31-.31-.06-.16-.09-.22-.21-.34-.14-.14-.36-.06-.42.11-.18.5-.14.99.08,1.47.1.21.39.13.46-.06.11-.34.03-.64-.2-.9-.08-.09-.2-.08-.3-.04-.45.2-.66.72-.48,1.18.05.12.12.17.24.18.65.08,1.07-.79.42-1.12-.56-.29-1,.46-.58.87.13.12.38.08.42-.11.1-.5-.1-.98-.58-1.19-.16-.07-.3,0-.37.15-.21.51.43,1.05.9.74s.36-1.22-.24-1.26-.77.76-.25.99c.62.28,1.03-.47.68-.96-.07-.09-.17-.15-.28-.11-.79.22-.3,1.17.39,1.11.73-.07.97-1.11.15-1.19v.5c.54-.06.96-.65.56-1.13-.31-.37-1.19-.33-1.16.28.03.5.8.52.9.04.14-.69-.74-.76-1.09-.35-.17.2,0,.46.24.42.5-.08,1.19-.67.66-1.19-.41-.4-1.16.17-.75.63s1.24-.03,1.44-.49c.25-.59-.28-1.27-.92-1.07-.11.03-.17.13-.18.24-.06.78,1.07.76,1.43.28.48-.64-.24-1.4-.92-1.26-.12.02-.17.14-.18.24-.11.8,1.17.79,1.13-.06-.04-.79-1.41-1.15-1.72-.36-.11.29,0,.64.32.74.34.11.7-.13.87-.42.46-.81-.18-1.72-1.06-1.72-.18,0-.27.16-.24.32.08.51.82.51.98.05.25-.7-.62-.94-1.12-.93-.13,0-.26.11-.25.25.05.79,1.22.34.77-.36-.4-.62-1.54-.67-1.9-.01-.06.11-.03.21.04.3.33.41,1,.26,1.18-.22.25-.69-.38-1.18-.94-1.4-.08-.03-.19,0-.24.06-.26.26-.16.71.23.78.45.08.7-.43.55-.81-.14-.35-.64-.64-.98-.35-.28.24-.17.73.19.8.17.03.38-.11.31-.31-.12-.34-.44-.91-.89-.76-.53.18-.19.73-.16,1.08l.49-.07c-.16-.49-.52-1.1-1.14-.84s-.32.83.07,1.1c.11.08.28.02.34-.09.41-.74-.78-1.23-1.35-1.08s-.77,1.07-.11,1.27c.2.06.33-.13.31-.31-.09-.59-.36-1.15-.83-1.55-.34-.29-.9-.46-1.19-.01-.16.24-.1.79.3.71s.27-.56.08-.77c-.32-.35-.83-.57-1.29-.4-.41.15-.65.58-.47,1,.14.32.54.54.86.31.38-.28.05-.88-.23-1.11-.96-.78-2.12.8-1,1.37.21.11.4-.07.37-.28-.06-.41-.3-.78-.67-.98-.28-.15-.7-.22-.9.08-.36.56.45,1.36,1.01,1.01.7-.44-.12-1.4-.73-1.35-.8.06-.72,1.26.07,1.06.1-.03.19-.13.18-.24-.03-.6-.58-1.27-1.23-.88-.55.33-.29,1.11.3,1.16.08,0,.18-.05.22-.12.25-.58-.41-1.17-.93-.73-.61.53-.04,1.27.54,1.47.2.07.33-.14.31-.31-.08-.63-.89-.93-1.39-.55-.46.35-.57,1.35.04,1.64.25.12.53-.01.61-.27.09-.31-.13-.57-.38-.71-.92-.52-.74.76-.48,1.22.09.16.34.16.43,0s.08-.35-.08-.47c-.21-.17-.45-.03-.64.11-.52.4-.79,1.01-.85,1.65l.47-.13c-.55-.84-1.71-.71-2.31-1.46l-.24.42c.32.05.6-.04.78-.33.23-.36.11-.78-.02-1.15-.06-.16-.21-.22-.37-.15-.33.16-.68.5-.44.89.26.42.74.1,1.01-.11.41-.33.76-.82.71-1.37-.03-.36-.27-.77-.69-.61-.48.18-.38.77-.12,1.08.32.38.87.52,1.33.35.41-.16.76-.6.76-1.05,0-.35-.3-.73-.67-.52-.46.25-.49.95-.2,1.33s.88.43,1.27.15c.1-.07.17-.22.09-.34-.52-.74-1.81-.62-1.84.43-.02.91,1.33,1.25,1.65.36.12-.34.03-.79-.31-.97-.45-.24-.74.23-.86.6-.13.41-.04,1.01.45,1.13.39.1.74-.2.74-.58,0-.2-.21-.3-.38-.22-.65.35-.87,1.16-.5,1.79.11.19.4.15.46-.06.11-.4-.16-.67-.5-.84-.57-.28-1.23-.44-1.83-.65-.12-.04-.28.05-.31.17-.06.28.02.47.25.64.19.14.4-.09.37-.28-.16-.83-1.18-1.01-1.76-.49-.38.35-.83,1.56.03,1.64.29.03.54-.21.58-.49.05-.37-.24-.66-.59-.73-.78-.15-1.39.72-1.06,1.41.27.56,1.26.84,1.37.02s-.95-.97-1.35-.4c-.48.68.02,1.58.74,1.81.58.19,1.7-.18,1.38-.98-.12-.31-.51-.51-.82-.33-.35.2-.6.85-.58,1.23s.25.74.64.79.73-.27.7-.66c-.01-.19-.28-.36-.43-.18-.4.51-.87,1.22-.44,1.86.28.41.96.55,1.26.08.26-.41.02-.99-.5-.99-.35,0-.6.27-.9.39-.44.18-.91-.09-1.02-.54l-.37.28c.46.31,1.2.17,1.37-.42.16-.54-.3-1.13-.86-1.06-1.2.15-2.24,2.79-.61,3.04.54.08,1.12-.53.74-1.04-.32-.43-1.08-.24-1.03.34.11,1.41,2.99-.02,2.05-1.2-.46-.57-1.58-.73-2.12-.2-.5.5-.22,1.36.5,1.38.32.01.32-.49,0-.5h0Z"/>
  <path class="cls-1" d="M19.31,11.96c-.53-.24-.63-1.07-.07-1.35.66-.33,1.36.3,1.28.97-.02.19-.21.79-.47.81-.38.03-.22-.67-.15-.86.13-.31.4-.57.75-.54s.67.33.65.7l.12-.22c-.54.34-1.23-.14-1.53-.6-.43-.66.15-1.25.65-1.65.25-.2.57-.39.9-.36.4.04.62.39.53.77-.15.6-1.02,1.06-1.61.89-.55-.16-.83-.88-.84-1.4,0-.35.11-.73.53-.72.32,0,.62.26.6.6-.03.75-.97.9-1.45.48-.22-.19-.37-.46-.39-.75-.02-.21,0-.43.17-.59.19-.18.84-.12.62.24-.13.22-.51-.07-.57-.17-.07-.11-.11-.28-.11-.41-.02-.34.14-.67.43-.86.16-.1.58-.27.76-.14.26.2-.4.6-.52.66-.17.09-.41.26-.57-.03-.04-.07-.02-.3-.02-.4,0-.32.07-.64.17-.94.03-.08.09-.33.17-.38.42-.29.41.25.33.41-.16.32-.7.44-1.01.48-.64.07-1.34-.2-1.48-.89-.06-.32.07-.77.45-.85.19-.04.52.12.51.36-.02.32-.42.38-.65.34-.68-.11-.87-.93-.3-1.32.3-.21.65-.17.92.06.25.21.55.67.09.81-.81.24-1.43-.74-.86-1.36.12-.13.71-.61.83-.27.1.27-.44.6-.62.67-.58.2-1.24-.25-1-.9.02-.06.12-.26.2-.28.43.28.45.48.07.59l-.13.04c-.18.04-.37.02-.53-.09-.19-.13-.36-.61.05-.65l-.24-.32c-.31.75-1.35,1.31-2.11.82-.28-.18-.42-.43-.25-.77.03-.07.41-.65.58-.28.04.09-.48.37-.58.38-.5.08-.57-.48-.2-.73.16-.11.38-.14.57-.15.32,0,.6.11.12.36-.33.18-.91.23-1.27.12-.24-.07-.47-.23-.53-.48-.1-.42.46-.76.6-.29s-.31.73-.68.83c-.41.11-1.12.16-.77-.5.09-.17.2-.34.33-.49.16-.19.24-.36.32-.03.08.31-.07.69-.3.89-.33.29-1.35.25-1.12-.45.13-.4.65-.29.61.06-.03.26-.41.48-.61.58-.19.1-.41.2-.63.19-.61-.04.12-.49-.29-.08-.3.3-.92.42-1.32.47-.22.03-.53.08-.64-.22s.19-.65.35-.87h-.35c.26.24.71.98.09,1.14-.32.08-.43-.28-.29-.51.1-.16.24-.27.42-.33l.32.17c.2.39-.44.78-.69.93-.35.2-.76.4-1.17.27-.23-.07-.42-.21-.45-.47-.03-.12,0-.24.09-.35.24-.08.33-.02.29.17.09.37-.43.76-.68.96s-.35.28-.66.23-.38-.14-.33-.46c.06-.38.42-.65.69-.89l-.39-.05c.13.29.35.73.24,1.07-.05.16-.25.4-.45.38-.36-.03-.29-.63-.08-.74.27-.14.31.35.25.54-.19.67-1.19.27-.82-.21.42-.57.74.44.77.74s.38.33.49.07c.34-.83,1.01-1.55,1.89-1.8.41-.11.85-.12,1.25-.01.23.06.45.15.65.28.3.2.24.12.43-.12.23-.3.6-.46.97-.49.14-.01.29,0,.42.03.04,0,.57.24.54.27-.06-.18,0-.3.19-.36.12-.06.25-.11.39-.14.23-.05.48-.06.71-.02.58.1,1.05.54,1.13,1.13l.43-.18c-.15-.18-.37-.39-.41-.64-.08-.5.27-.47.51-.27.22.13.24.22.05.28.08-.13.19-.23.32-.31.18-.12.5-.29.72-.17.21.01.22.13.02.35.01-.14.06-.27.14-.39.13-.2.33-.34.54-.43s.44-.13.67-.08c.26.02.29.14.08.36-.08-.08-.15-.17-.19-.28l-.09.34c.73-.56,2-.27,2.02.8.03.19-.05.35-.23.48.1-.01.2,0,.3.04.17.05.36.16.5.29.12.1.2.24.22.4.04.18,0,.23-.15.15.15-.21.32-.25.51-.12l.2.26c.17.45-.25.94-.63,1.12-.11.06-.22.09-.35.1-.04-.27.05-.4.28-.39.16-.03.37.04.51.13.34.22.55.96.13,1.22-.56.01-.65,0-.28-.07.12,0,.24,0,.35.05.24.07.42.22.58.41.27.33.4.76.45,1.18.02.08.02.17.02.25-.29.32-.29.41,0,.25.27-.06.53.06.73.24.14.13.25.3.33.47.09.19.26.98-.16.68-.17-.12-.24-.4-.14-.6.26-.5.69-.14.82.15.17.39.05.91-.37,1.07-.29.11-.95,0-.96-.42-.06-.1-.02-.17.12-.21.07.15.09.3.05.46-.05.25-.2.47-.44.58-.59.26-1.2-.41-.73-.92l-.24.06c.4.11.72.35.94.71.1.17.18.35.19.54.03.13,0,.26-.07.38-.19.29-.37.27-.56-.07l-.17.17c.29-.07.58-.06.85.08.16.08.49.29.46.49-.07.51-.59.03-.59-.15,0-.11.32.44.35.51.07.16.16.37.12.55-.06.33-.38.38-.62.15-.31-.29-.49-.68-.6-1.08l-.42.24c.08.07.16.14.23.21.29.36.25.5-.12.4-.31-.24.08-1.22.46-.83.3.3,0,.91-.26,1.11-.14.12-.84.36-.76-.13l.36-.18c.12.04.24.1.36.16.38.21.69.52.93.89l.28-.37c-.34-.13-.47-.45-.43-.79l-.32.24c.47.18.82.49,1.07.92l.09-.34c-.3.22-.78.32-1.07,0-.25-.28-.19-.83.2-.95.14-.04.29-.03.41.05.09.04.15.1.18.19.1.14.05.14-.16,0-.21-.32.25-.89.48-1.05l-.3-.04c.17.14.17.33,0,.47h.35c-.44-.46-.41-1.18.05-1.62l-.42-.11c.09-.21.22-.3.41-.27.25-.04.24.1,0,.42l-.18.43c.35-.04.66.12.78.47l.11-.28c-.37.18-.75-.15-.72-.52l-.12.22c.3-.18.46-.05.46.36-.25.14-.46.13-.64-.01-.17-.1-.33-.31-.44-.47s-.21-.38-.2-.59c.01-.22.12-.38.32-.47.44.29.48.45.13.48-.32.1-.42-.12-.48-.41-.04-.17-.03-.36,0-.53.07-.39.27-.78.66-.93l-.24-.06-.1.32.24.06c-.35-.43-.3-1.04.09-1.43l-.39-.05c.05.08-.5.13-.54.12-.17-.01-.35-.07-.48-.18-.29-.25-.34-.66-.06-.93h-.35c.2.25-.02.61-.3.63-.38.03-.66-.44-.48-.78l.18-.2.34.14-.35-.08c-.03-.1-.03-.2-.03-.3,0-.2.31-1.07.46-.48.05.18-.12.54-.25.66-.31.31-.62.08-.78-.25-.25-.51-.14-1.09.18-1.54h-.43c-.18.2-.32.22-.41.06-.07-.08-.12-.17-.15-.27-.05-.14-.06-.3-.06-.45.01-.34.14-.64.35-.91l-.46-.06c.1.64-.82,1.01-1.32.99-.21,0-.38-.06-.52-.2.29-.69.43-.71.42-.05-.2.25-.56.16-.76-.02-.18-.16-.27-.44-.29-.67,0-.11,0-.23.03-.34.07-.33.24-.34.5-.04-.23.46-.68-.23-.66-.5.02-.31.22-.56.47-.72l-.38-.22c0,.28-.09.52-.3.71-.11.1-.24.17-.38.21-.18.07-.31.03-.39-.13l-.15-.37c-.23.33-.52.64-.94.7-.5.06-1.01-.37-.64-.87l-.39.05c.23.21.34.46.28.78l.24-.18c-.42,0-.8-.44-.62-.86l-.34.09.15.29.11-.28c-.56.35-1.67.95-2.08.07-.05-.08-.07-.16-.07-.25l.27.1c.24.29-.24.65-.45.72-.34.12-.9-.01-.86-.46l-.12.22c-.02.27-.16.4-.41.39-.23-.02-.38-.14-.44-.35.09-.3.2-.3.33,0,.11.22.08.42-.09.61-.19.2-.57.23-.77,0-.37-.44.27-.89.56-.42s-.19.9-.59,1.05c-.2.08-.44.13-.65.13s-1.03-.32-.52-.64l-.34-.09c.36.55.25,1.24-.27,1.65h.35c-.24-.19-.33-.45-.18-.74l-.34.09c.21.14.58.37.6.65.07.13.03.22-.15.27-.12.2-.23.2-.32,0-.19-.2-.2-.34-.13-.62l-.17.17c.15-.04.03.74-.01.82-.21.33-.94.45-.85-.15l-.31.17c.39.11.53.68.07.81s-.65-.42-.37-.72l-.3.04c.38.22.64.5.84.89l.09-.34c-.13.11-.27.17-.44.19-.22-.07-.27-.16-.14-.28l-.24-.06c.32.4.37.87.21,1.35l.24-.18-.27-.33-.37.15c.28.18.71.69.52,1.06-.14.26-.5.16-.67.04-.19-.13-.32-.32-.41-.52-.12-.29-.6-.17-.48.13.25.61,1.14,1.47,1.82.87s.05-1.65-.52-2.01c-.13-.08-.34,0-.37.15-.1.51.23.94.75.96.11,0,.21-.08.24-.18.23-.66.09-1.3-.34-1.84-.05-.07-.16-.09-.24-.06-.39.1-.55.55-.36.91.27.51.94.36,1.33.09.12-.08.16-.22.09-.34-.24-.46-.58-.8-1.02-1.07-.09-.06-.23-.04-.3.04-.63.66-.09,1.82.85,1.56s.81-1.53-.07-1.77c-.12-.03-.29.04-.31.17-.13.89.87,1.42,1.55.82.34-.3.45-.75.36-1.18-.07-.36-.28-.77-.7-.65-.08.02-.16.09-.17.17-.1.42-.07.9.29,1.2.26.22.66.29.96.1s.42-.56.35-.9c-.09-.47-.49-.76-.86-1.01-.11-.07-.28-.02-.34.09-.24.47-.16,1,.26,1.34.11.09.24.09.35,0,.68-.55.82-1.54.35-2.26-.07-.11-.22-.16-.34-.09-.46.28-.49.94-.08,1.3.52.45,1.41.29,1.96-.02s.88-.9.63-1.5c-.21-.51-.81-.83-1.3-.47s-.46,1.1.02,1.46c.51.39,1.27.17,1.55-.4.25-.52-.03-1.24-.59-1.42-.65-.21-.85.6-.61,1.06.31.6,1.17.72,1.62.2s.06-1.27-.61-.99c-.08.04-.12.14-.12.22-.07.85.98,1.18,1.64.88.7-.31,1.06-1.37.22-1.77s-.93.75-.54,1.24c.71.88,1.84.39,2.62-.1.1-.06.13-.17.11-.28-.04-.27-.17-.43-.38-.59-.1-.08-.29-.02-.34.09-.32.75.2,1.63,1.05,1.61.1,0,.22-.08.24-.18.09-.49-.04-.92-.41-1.26-.13-.12-.29-.08-.39.05-.43.57-.1,1.35.55,1.57.79.26,1.48-.28,1.9-.89.09-.13,0-.33-.15-.37-.75-.16-.85.9-.15,1.1.86.24,1.59-.63,1.6-1.41,0-.18-.22-.32-.38-.22-.52.34-.85.94-.67,1.57.15.52.78.91,1.29.6.44-.26.49-.97.02-1.23-.54-.29-1.08.18-1.2.69-.12.55.08,1.22.55,1.55.44.31,1.09.23,1.41-.22s.07-1.08-.45-1.23c-.55-.16-1.09.35-1.01.9.24,1.6,3.14.71,2.92-.79-.04-.24-.34-.21-.46-.06-.49.65-.66,1.86.1,2.39.56.4,1.43-.17,1.03-.82-.11-.17-.32-.15-.43,0-.41.57-.51,1.31-.23,1.96.21.49.71.93,1.27.68.5-.22.81-.92.71-1.44s-.7-.69-1.09-.33-.5,1.29-.16,1.73c.28.37.94.44,1.14-.05.18-.46-.19-1-.69-.98-.58.03-.95.66-.83,1.19.13.58.78,1.05,1.35.78s.69-.97.31-1.43c-.09-.11-.26-.09-.35,0-.6.57-.34,1.54.39,1.85.34.15.82.17,1.17,0,.29-.14.51-.47.3-.76-.09-.13-.27-.17-.39-.05-.59.59-.61,1.5-.09,2.14.05.07.16.09.24.06.52-.15.68-.76.32-1.16-.05-.06-.17-.09-.24-.06-.96.38-1.52,2.02-.63,2.77.99.83,1.95-1.07.71-1.38-.52-.13-.97.31-1.06.79-.1.59.3,1.21.74,1.56s1.12.49,1.45-.07c.25-.43.06-.99-.41-1.15-.57-.19-1.04.21-.78.78.24.54.89.75,1.4.49.09-.05.15-.18.11-.28-.19-.55-.67-.9-1.26-.83-.21.02-.34.26-.18.43.35.36.99.28,1.17-.22.21-.59-.33-1.12-.9-1.06-.45.05-1.04.61-.61,1.05.33.34.85.03.79-.4-.03-.2-.3-.23-.42-.11-.66.63-.68,1.67-.05,2.33.1.1.25.09.35,0,.37-.31.37-.87,0-1.18-.08-.07-.21-.11-.3-.04-.56.4-1.23,1.75-.3,2.17.33.14.7-.03.78-.39s-.15-.74-.47-.92c-.77-.45-1.61.21-1.5,1.06.12.95,1.26,1.22,1.96.7.11-.08.16-.21.09-.34-.32-.55-.78-.93-1.37-1.15-.17-.06-.3.1-.32.24-.07.59.26,1.06.8,1.27.2.08.4-.19.28-.37-.38-.58-1.01-1.2-1.72-1.32-.51-.08-.92.29-.85.81s.62.77,1.1.66c.58-.14.99-.76,1.01-1.33.02-.52-.3-1.06-.89-.99-.62.08-.89.75-.75,1.31.12.47.62.98,1.1.6.57-.45.11-1.12-.28-1.48-.18-.16-.49,0-.42.24.15.56.46,1.16.96,1.48.4.26.91.22,1.14-.23.3-.59-.34-2.66-1.18-2.02-.71.54.54,1.89,1.22,1.25.35-.33.2-.9-.1-1.21-.42-.46-1.07-.58-1.65-.44-.08.02-.16.09-.17.17-.15.99,1.16,1.19,1.53.33.42-.96-.54-2.02-1.41-2.25-.08-.02-.18,0-.24.06-.65.69-.2,1.82.77,1.84.87.02,1.63-1.06,1.13-1.85s-1.28.02-1.01.7c.33.82,1.55.97,2.09.29s.28-1.83-.6-2.06c-.93-.24-1.33,1-.88,1.66.2.3.57.39.88.21.44-.25.45-.79.31-1.21s-.43-.86-.84-1.08c-.38-.2-.99-.24-1.31.08-.52.53.52,1.14.93.53.24-.37.12-.92.02-1.31-.14-.5-.4-1-.84-1.3-.37-.25-.99-.42-1.41-.16-.3.18-.33.58-.1.86.68.83,1.63-.36,1.57-1.08-.07-.87-1.07-1.46-1.86-1.04-.31.17-.56.51-.42.87.17.43.7.44,1.08.3.78-.3,1.47-1.37.83-2.12-.52-.61-1.64-.31-1.51.57.07.42.43.67.8.4.35-.25.43-.76.26-1.14-.2-.44-.74-.79-1.21-.85-.35-.05-.78.12-.74.54.04.38.51.57.83.41.45-.22.48-.85.37-1.27-.31-1.2-1.76-1.63-2.72-.89-.11.09-.16.21-.09.34.23.44.91.94,1.3.37.37-.54-.16-1.1-.69-1.2-.65-.11-1.35.2-1.71.75-.28.43-.32,1.29.38,1.3.57,0,.86-.63.59-1.09-.36-.61-1.15-.52-1.67-.19-.48.3-.89.96-.4,1.45.42.43,1.05.09,1.06-.48.02-.61-.76-1.5-1.4-1.1-.76.48-.26,1.36.17,1.85.13.15.45.04.43-.18-.1-.75-.59-1.36-1.33-1.57-.65-.19-1.62-.09-2.03.51-.29.42-.17,1.17.44,1.19.56.02.79-.57.46-.98-.78-.97-2.77-.61-3.05.65-.11.47.4,1.11.86.67.57-.54-.28-1.18-.72-1.37-1.75-.78-3.51.38-4.18,2.01l.49.07c-.04-.53-.23-1.23-.82-1.37-.53-.13-1,.32-1.02.83-.05,1.26,1.95,1.07,1.92-.18-.01-.46-.42-1.21-.98-.94-.45.21-.56.97-.38,1.38.23.53.87.55,1.27.21.61-.52.32-1.34.04-1.96-.07-.16-.28-.14-.39-.05-.51.44-1.07,1.05-.76,1.77.34.8,1.16.51,1.7.11.51-.38,1.16-1.04.85-1.75-.26-.6-1.05-.39-1.26.13-.26.64.21,1.25.83,1.39.71.17,1.54-.26,2.04-.74.42-.4.64-1.23.01-1.56s-1.39.32-1.46.95c-.07.67.61,1.01,1.18.73.81-.4.49-1.42-.04-1.91-.09-.08-.27-.11-.35,0-.41.52-.91,1.61.05,1.92.69.22,2.04-.16,2.44-.8.36-.59-.19-1.51-.88-1.03s-.17,1.36.51,1.46,1.88-.52,1.89-1.33c0-.73-.98-.99-1.42-.47-.53.62-.02,1.49.7,1.61.76.13,1.43-.47,1.53-1.21.09-.62-.37-1.5-1.01-.88-.43.42-1.26,1.55-.43,1.99.64.34,1.82,0,2.15-.65.28-.56-.02-1.45-.75-1.4-.78.06-.98,1.06-.54,1.59.57.68,1.74.58,2.46.21.29-.15.54-.44.46-.79-.09-.37-.48-.45-.81-.46-.73-.03-1.64.41-1.46,1.28.22,1.09,1.6.53,2.01-.1.21-.32.13-.71-.22-.87-.44-.2-.84.14-1.1.47-.65.83-.13,1.77.87,1.92s1.87-.46,2.23-1.34c.06-.14-.09-.33-.24-.32-.6.06-.96.75-.64,1.28.38.62,1.37.6,1.86.13.53-.51.25-1.47-.56-1.36-.65.09-.96.81-.81,1.4.36,1.48,2.94.9,2.6-.51-.21-.86-1.29-.29-1.67.1-.5.52-.48,1.4.04,1.9.48.45,1.52.52,1.91-.1s-.53-1.45-1.07-1.57c-.69-.16-1.42.38-1.52,1.07s.49,1.31,1.17,1.37c.64.05,1.34-.47,1.05-1.16-.3-.72-1.2-.7-1.65-.15-.5.61-.23,1.51.34,1.97.67.53,1.75.49,2.44.03.56-.37.79-1.26.06-1.6-.8-.38-1.13.84-1.22,1.38-.1.6-.11,1.82.83,1.56.55-.15,1.47-.7,1.27-1.41s-1.33-.38-1.71-.06c-.57.47-.71,1.43-.21,2.01.43.5,1.34.49,1.39-.3.05-.73-.78-1.03-1.33-.67-1.44.93.43,3.35,1.83,2.32.53-.39.76-1.2.27-1.72-.42-.44-1.22-.51-1.62,0-.49.62-.2,1.74.27,2.29.57.67,1.5.61,2.19.15.62-.41,1.07-1.27.53-1.94-.5-.62-1.37-.41-1.93,0-.64.47-1.34,1.22-1.03,2.07.25.69,1.11,1.35,1.86,1.27.81-.09.77-.87.23-1.31s-1.31-.36-1.75.18c-.36.45-.59,1.52,0,1.9.66.41,1.28-.68,1.35-1.19.1-.69-.27-1.34-.93-1.56-.63-.21-1.39.02-1.63.68-.22.6.02,1.32.61,1.59.29.13.54-.3.25-.43h0Z"/>
  <path class="cls-1" d="M3.8,7.28c-.12-.13-.21-.29-.25-.46-.01-.06,0-.22-.02-.26v-.03s-.1.02-.15.04c-.03.03-.06.17-.08.21-.06.14-.14.33-.29.4-.22.11-.29-.14-.36-.3-.15-.34-.33-.77-.14-1.13.12-.24.46-.46.66-.18.45.6-.54,1.07-1.03.91-.35-.11-.3-.44-.07-.66s.65-.38.87-.07c.21.29.3.72.36,1.07.06.36.04.78-.19,1.08-.19.24-.55.39-.83.21-.19-.12-.24-.46-.04-.6.29-.2.68.3.82.49.2.26.39.61.28.95-.12.37-.43.45-.75.26-.15-.08-.32-.18-.42-.32-.01-.02-.06-.16-.06-.05,0,.02.04.07.06.1.03.06.05.12.08.19.16.41.35.95.23,1.39-.07.29-.53.68-.71.26-.02-.05-.06-.3,0-.3.09,0,.27.55.28.62.03.16.03.35-.08.48-.08.08-.33.11-.29-.06l-.24.18c.5-.06.43.72.38,1.02-.02.11-.14.47-.32.35-.13-.09,0-.26.11-.3.18-.06.36.05.48.18.06.07.12.15.15.24.03.11,0,.13-.11.17-.32.1-.68-.12-.77-.44s-.57-.18-.48.13c.17.57.78.93,1.36.79.32-.08.56-.32.51-.67-.04-.32-.28-.63-.55-.79-.52-.32-1.37,0-1.23.7.06.29.32.51.62.49.34-.02.58-.3.68-.6.11-.35.13-.83.02-1.18s-.45-.66-.85-.61c-.11.01-.21.07-.24.18-.08.31.1.61.4.73s.6,0,.78-.24c.2-.26.23-.59.16-.9-.07-.29-.23-.71-.47-.9-.28-.21-.62-.05-.76.25-.12.26-.08.57.08.8.39.58,1.2.35,1.49-.21.34-.66.03-1.57-.26-2.18-.13-.28-.44-.52-.74-.31-.27.18-.28.55-.1.79.19.26.55.48.85.57s.63.04.88-.18c.53-.46.42-1.22.07-1.75-.31-.48-.97-1.19-1.6-.77-.48.32-.47,1.07-.02,1.4.53.39,1.26.15,1.6-.37.43-.64.27-1.47.03-2.15-.1-.28-.23-.57-.47-.75-.28-.21-.64-.19-.95-.06-.53.22-1.05.87-.67,1.44.36.53,1.2.48,1.69.19s.75-.97.4-1.49c-.38-.57-1.13-.41-1.48.11-.19.29-.22.64-.16.98s.21.77.42,1.05.56.32.85.17.45-.47.57-.77.06-.78-.36-.78c-.35,0-.44.38-.42.66.03.35.18.66.41.91.22.24.57-.12.35-.35h0Z"/>
  <path class="cls-1" d="M22.39,13.9c-.19-.38-.13-.58.17-.59.15-.05.3-.06.45-.02.12.02.24.06.35.09.2.07,1.31.54.61.76-.52.16-.99-.39-.85-.88s.8-.61,1.09-.15l.15-.37c-1.09.41-1.55-.84-1.54-1.69,0-.3-.4-.32-.49-.07-.05.35-.29.46-.71.32-.05-.18-.08-.36-.09-.55,0-.25.02-.52.11-.75.23-.61.29-.06-.22-.21-.33-.1-.56-.38-.69-.69s-.14-.65-.08-.98c.07-.37.1-.39-.01-.83-.07-.26-.13-.5-.11-.77,0-.16.03-.32.09-.48.13-.16.24-.16.33.01l.06-.24c-.31.21-.46.14-.44-.22-.21-.39-.04-.53.51-.43.19.09.6.62.11.71l-.58-.26c.1-.43.31-.53.61-.32.2.12.35.36.48.55l.22-.38c-.42,0-.96-.32-.81-.82.06-.19.4-.52.62-.37l.25.58c-.74.04-.87-.1-.41-.43.13-.31.24-.38.33-.18.1.09.08.14-.08.17-.16.13-.36.13-.54.07-.49-.14-.62-.73-.31-1.12l-.43-.18c.02.18-.11.51-.32.53-.28.03-.36-.28-.39-.46-.03-.2.22-.26.03.02-.09.13-.28.23-.41.31-.3.18-.69.31-1.03.14-.09-.05-.48-.46-.19-.26.17,0,.19.03.06.13-.08.11-.18.2-.31.26-.22.13-.5.21-.76.18-.53-.05-.59-.68-.14-.92.4-.21.84.09,1.1.39.09.1.16.2.22.32.04.07.08.15.1.23.15.25.03.45-.37.58l-.25.25c.88-.06,1.75.08,2.55.48.35.18,1.55.8.84,1.4-.37.31-.99.15-1.34-.07l-.13.47c.63-.03,1.23.17,1.69.61.1.1.22.22.29.34s.18.44.07.57c-.28.33-1.02.09-1.32-.08v.43c.79-.38.94.78.63,1.24-.25.36-.64.54-1.08.53l.13.47c.34-.22.69-.22,1.06-.09.15.05.31.12.44.22.08.04.14.09.19.17.18.15.11.31-.21.48l-.15.37c.36-.13.72-.15.97.19.15.13.2.3.13.5-.28.34-.52.35-.72.04l-.22.38c.11-.01.85-.06.6.34-.04.06-.33.05-.41.05-.36.01-.75-.01-1.08-.16-.91-.42-.62-1.46-.37-2.22.05-.14-.08-.33-.24-.32-.47.05-.47-1.47-.47-1.74s-.01-.59.05-.87c.07-.35.46-1.02.87-.53l.11-.42c-.95.24-1.55-.85-.85-1.53.15-.15.04-.43-.18-.43-.58.02-1.23-.24-1.44-.83-.2-.56.14-1.18.71-1.34l-.31-.31c-.07.43-1.03.44-1.32.42-.52-.04-1.3-.43-.98-1.1l-.28.11c.22.02.3.13.26.34.11.2.06.3-.15.29-.13.06-.35.04-.49.03-.46-.02-.97-.22-1.26-.59-.07-.05-.11-.12-.14-.2-.02-.13-.09-.13-.19,0-.18.04-.33.16-.53.18-.4.04-.59-.16-.68-.5-.1-.4-.15-.57.38-.74l.31.17c-.04-.16.52-.37.69-.2l.09.04c-.27.21-.38.21-.32-.02-.04-.32.27-.7.47-.91l-.42-.11s-1.97.38-2.28.37-.58-.12-.88-.14c-.17-.1-.32-.06-.43.13-.13.08-.27.15-.42.19-.22.06-.5.09-.73.03-.24-.25-.36-.25-.36,0-.12.07-.25.13-.39.16-.23.06-1.85.11-1.79-.29l-.24.18c.86-.02.19,1.21-.26.56v.25c.1.25.05.43-.14.53-.08.08-.18.15-.28.21-.17.11-.37.19-.56.26-.4.13-.29.04-.27.41.01.22-.05.46-.16.66-.46.84-1.6.85-2.15.11l-.22.38c.39-.01.81.25.79.7l-.17.39c-.14.15-.31.24-.52.25.07-.14.49.59.52.65.08.17.15.34.2.52-.35.31-.47.27-.36-.13l-.42.11c.35.34.65.72.88,1.15.15.28.32.63-.17.54-.21-.04-.44-.33-.58-.47l-.35.35c.18.19.52.5.49.8-.04.43-.51.45-.84.46-.53.02-1.01-.14-1.45-.43l-.19.46c.39.15.7.46.81.87.04.16.06.33.03.49,0,.1-.04.19-.1.26-.1.28-.32.28-.65-.02l-.25.25c.69-.01,1.21.44,1.31,1.11l.17-.31c-.5.14-.96.04-1.35-.31l-.24.42c.41.17.78.41,1.1.72l.12.13c.24.15.27.24.07.29-.1.1-.43.11-.55.13-.32.05-.18.54.13.48.44-.08,1.32-.22,1.01-.87s-1.11-1.11-1.74-1.37c-.23-.1-.42.26-.24.42.52.47,1.16.62,1.83.43.14-.04.2-.17.17-.31-.14-.89-.91-1.5-1.8-1.48-.13,0-.25.11-.25.25.03.92,1.18.99,1.6.28.54-.93-.15-2.02-1.04-2.37-.27-.11-.42.31-.19.46.7.45,1.84.75,2.62.29s.26-1.42-.22-1.91c-.23-.23-.58.12-.35.35.33.35,1.44,1.27,1.8.47.34-.75-.75-1.94-1.22-2.4-.13-.12-.38-.08-.42.11-.09.41-.04.9.38,1.11.37.18.83.04.96-.37.19-.61-.61-2.56-1.46-2.01-.26.17-.36.6-.07.79.35.24.94-.07,1.18-.33.74-.8.03-1.97-.98-1.94-.17,0-.33.22-.22.38.71.96,2.14,1.1,2.89.08.3-.42.5-1.07.24-1.55-.19-.37-.69-.54-1-.19-.29.33-.04.73.34.8.55.11,1.3-.3,1.7-.64.33-.28.68-.79.35-1.21-.26-.33-.74-.32-.96.03-.05.07-.05.18,0,.25.35.51,1.18.62,1.54.05.4-.62-.19-1.37-.85-1.36-.1,0-.22.08-.24.18-.21,1.4,3.7,1.39,3.35-.21-.13-.62-.95-.79-1.19-.15-.3.8.69,1.18,1.31,1.13.52-.04,1.68-.46,1.53-1.17-.14-.65-1.07-.24-.91.34.21.73,1.53.64,2.07.56.35-.05,2.06-.48,1.35-1.17-.21-.21-.52-.11-.69.1-.25.3-.15.73.13.99.66.59,1.49-.12,1.31-.88-.04-.18-.29-.25-.42-.11-.34.37-.74.95-.62,1.49.07.35.49.63.77.28.6-.75-1.05-1.63-1.22-.63-.18,1.12,1.95.95,1.83.11-.06-.44-.82-.68-1.18-.62-.47.07-.76.5-.64.95.03.13.18.22.31.17.91-.3.17-1.67-.69-1.03-.46.35-.43,1.01-.28,1.51.17.57.57.86,1.17.78.44-.06,1.15-.31,1.3-.78.13-.42-.22-.76-.64-.66-.45.1-.6.57-.44.96.24.59.93.95,1.52,1.06.48.09,1.34.11,1.63-.4.34-.6-.32-1.02-.78-1.21-.09-.04-.24.02-.28.11-.37.78.16,1.58.96,1.79.64.16,2.11.14,2.26-.72.03-.18-.11-.36-.31-.31-.77.21-1.27,1.02-1.1,1.81.19.89,1.11,1.38,1.96,1.34l-.18-.43c-1.07,1.04-.1,2.73,1.33,2.36.2-.05.22-.28.11-.42-.26-.32-.67-.38-1.04-.22-.48.21-.65.74-.7,1.22-.08.66-.21,3.1.94,2.99l-.24-.32c-.23.68-.46,1.5-.09,2.17.35.63,1.08.81,1.76.84.44.02,1.29,0,1.37-.61.08-.64-.85-.82-1.3-.78-.19.02-.31.2-.22.38.39.72,1.47.57,1.65-.23.23-1.03-.9-1.52-1.73-1.23-.15.05-.24.22-.15.37.48.79,1.5.1,1.23-.71-.32-.94-1.77-1.23-2.53-.74-.21.13-.13.46.13.47.9.01,1.74-.65,1.77-1.59.02-.86-.76-1.51-1.58-1.12-.17.08-.15.34,0,.43.66.38,2.6.42,2.12-.82-.4-1.02-1.54-1.61-2.6-1.56-.25.01-.34.33-.13.47.5.32,1.14.41,1.69.15.52-.25.82-.76.55-1.31-.3-.6-1.07-.98-1.66-1.22-.76-.31-1.57-.42-2.38-.36-.13,0-.26.11-.25.25.03.83,1.09.89,1.38.16.33-.81-.44-1.87-1.18-2.15-.68-.26-1.6.15-1.62.96-.02.88,1.02,1.06,1.67.84s1.42-.99.84-1.66c-.53-.61-1.34-.09-1.17.65.19.84,1.2,1.04,1.89.73.4-.18,1.77-1.2.87-1.63-.77-.37-1.21.84-.84,1.37.53.76,1.67.11,1.56-.71-.02-.19-.27-.37-.43-.18-.41.51-.46,1.28.07,1.74.45.38,1.41.39,1.73-.19.28-.51-.37-1.02-.86-.95-.64.09-.94.88-.65,1.42s1.01.68,1.42.19.18-1.25-.45-1.43-1.22.3-1.27.94c-.06.77.63,1.24,1.33,1.24.18,0,.33-.22.22-.38-.29-.42-.66-.9-1.22-.9-.46,0-.89.33-.85.82.08.98,2.04,1.31,1.87.11-.15-1.05-1.68-1.43-2.04-.29-.32,1.01,1.42,1.55,1.53.68.05-.39-.43-.59-.74-.55-.53.08-.66.63-.67,1.08s.03,1.06.48,1.33c.39.23.91.07.96-.42.03-.37-.27-.68-.64-.56-.55.18-.7,1.1-.71,1.58-.02.89,1.01,2.49,2.06,1.72.35-.26.4-.9-.08-1.06-.65-.22-.95.7-1.03,1.15-.08.52-.08,1.45.48,1.72.65.32,1.07-.38,1.26-.88l-.49-.07c0,1.17.77,2.7,2.18,2.17.14-.05.24-.22.15-.37-.53-.82-1.84-.68-2.04.34-.22,1.1,1.12,1.92,2.01,1.21,1.01-.82-1.22-1.63-1.8-1.64-.47-.01-.97.19-1.09.68-.1.42.1.83.53.93.31.08.45-.41.13-.48h0Z"/>
  <path class="cls-1" d="M14.77,6.85h-.01s.09,0,.13,0c-.07,0-.03.08,0,.1,0,0,.01-.01.02,0,.05.04.1.06.15.11v-.35c-.15.17-.4.16-.58.03-.2-.15-.31-.45-.28-.7l-.03.13s-.04,0-.02,0c.03,0,.06,0,.1,0,.05,0,.1.01.15.03.11.03.2.09.28.17.03.03.06.06.08.1.01.02.03.05.04.07.05-.05.05-.07.02-.06-.02,0-.1.02-.12.02-.06,0-.12,0-.17-.01-.21-.05-.38-.19-.45-.39-.03-.1-.04-.21-.02-.32.01-.06.06-.27.14-.27.05,0,.2.8-.2.74-.18-.03-.32-.19-.35-.36-.06-.28.07-.58.19-.83h-.43c.19.31.46.7.32,1.08-.07.18-.23.27-.4.34-.2.08-.41.15-.62.19-.37.07-.77.02-1.03-.27-.09-.1-.16-.24-.16-.39,0-.09.06-.28.18-.26.1.02.16.17.2.25.04.09.06.2.09.29.01.04.02.09.04.13l.04.13c.08-.06.08-.07.02-.05-.08-.02-.19.01-.26,0-.09,0-.19-.01-.28-.04-.2-.05-.39-.15-.51-.31-.18-.24-.2-.66.12-.79.31-.13.57.23.71.45.04.07.15.21.14.29,0,.07-.1.12-.16.16-.14.08-.32.11-.47.07-.4-.08-.61-.49-.61-.87l-.38.22c.24.16.29.54.12.76-.12.16-.32.2-.51.21-.2,0-.45,0-.62-.11-.26-.16-.06-.56.21-.54.38.02.56.51.35.8-.11.16-.33.23-.5.13-.16-.09-.19-.31-.07-.44h-.35c.26.2-.07.46-.27.53-.03.01-.15.02-.06.05.07.02.02.01.03-.04,0-.08-.01-.16,0-.24.01-.14.05-.29.11-.42.1-.21.37-.6.64-.54.15.03.29.18.4.28.14.13.26.26.36.42l.39-.3c-.07-.07.02-.19.06-.25.08-.11.2-.18.31-.24.24-.13.51-.19.78-.19.53,0,1.08.22,1.4.66l.09-.34c-.19.09-.5.16-.68,0-.09-.08-.17-.3-.03-.37.19-.09.39.12.48.26.07.1.13.21.17.32,0,.02.02.05.03.07.03.05.03,0,.02,0-.06.01-.12.03-.17.04-.17.04-.43.08-.57-.05-.16-.15-.13-.47-.04-.65.08-.15.31-.31.46-.15.1.11.07.31,0,.43-.12.2-.36.3-.57.37-.08.03-.26.11-.34.07-.09-.04-.16-.23-.19-.32-.03-.1-.07-.22-.02-.32.03-.06.1-.14.17-.12s.12.14.15.2c.06.11.11.23.13.35.02.1.03.2-.04.28-.09.09-.25.15-.37.2-.22.1-.47.2-.72.17-.18-.02-.4-.12-.44-.31-.03-.12.03-.31.17-.32.24-.01.27.31.19.47-.12.25-.4.36-.66.42-.13.03-.28.06-.41.06-.12,0-.15-.05-.13-.17.04-.27.23-.51.43-.69l-.42-.11c.04.14.02.31-.1.4-.11.08-.16.21-.09.34.06.11.23.17.34.09.3-.23.45-.6.33-.97-.06-.19-.27-.24-.42-.11-.31.27-.61.72-.58,1.15.02.23.14.42.35.5s.46.04.69,0c.44-.08.9-.28,1.11-.7.2-.39.09-.9-.32-1.12-.38-.2-.8,0-.94.38s.03.8.38,1.01c.4.24.88.17,1.29,0,.44-.18.91-.41.86-.96-.03-.37-.24-.91-.61-1.05-.44-.18-.86.24-.87.66s.28,1.05.76,1.06c.22,0,.44-.09.64-.17.21-.09.42-.21.57-.38.24-.28.32-.71.13-1.04-.23-.39-.75-.44-1.1-.18-.36.27-.48.83-.32,1.25.17.46.63.57,1.07.51.2-.03.45-.06.59-.22.2-.22.08-.51-.04-.74-.22-.42-.62-.86-1.15-.72-.49.13-.59.71-.32,1.09.32.46.93.4,1.38.2.11-.05.16-.24.09-.34-.47-.64-1.27-.98-2.05-.89-.39.04-.78.17-1.09.42s-.54.76-.2,1.09c.2.19.56-.06.39-.3s-.37-.47-.61-.66-.51-.35-.82-.26c-.51.14-.89.7-.99,1.2-.05.24-.08.58.06.8.17.26.49.19.73.08.25-.11.48-.31.55-.59.07-.25,0-.55-.21-.71-.1-.08-.25-.11-.35,0-.25.26-.29.66-.1.96s.61.44.95.33c.76-.23.86-1.26.27-1.73-.27-.21-.65-.29-.96-.11-.28.16-.45.5-.42.81.08.78,1.25.88,1.8.61.69-.34.71-1.37.08-1.77-.16-.1-.38.03-.38.22,0,.58.35,1.18.93,1.34.49.13,1.37-.11,1.3-.76-.03-.29-.24-.59-.43-.8s-.43-.38-.72-.4c-.62-.05-1.05.59-.92,1.16.14.64.79.98,1.4,1,.28,0,.68,0,.74-.35.03-.17-.05-.36-.1-.53-.04-.14-.08-.27-.14-.41-.11-.24-.31-.45-.59-.48-.3-.02-.54.18-.65.45-.23.55.18,1.14.67,1.36.35.16.74.16,1.11.08.34-.07.73-.2,1.01-.41s.4-.56.37-.9c-.03-.38-.22-.71-.42-1.02-.09-.15-.35-.18-.43,0-.21.44-.4.98-.15,1.45.18.35.62.59,1.01.46.42-.14.55-.62.51-1.02-.02-.2-.07-.42-.23-.56-.18-.16-.44-.16-.63-.03-.38.27-.43.85-.26,1.25s.63.68,1.08.65c.21-.02.47-.08.56-.3s-.04-.45-.18-.62c-.25-.3-.81-.56-1.19-.34-.26.14-.22.46-.16.71s.18.46.35.63c.36.34.97.38,1.32,0,.09-.1.09-.25,0-.35-.25-.28-.73-.38-.95,0s.21.76.57.58c.29-.14.04-.57-.25-.43h0Z"/>
</svg>